<?xml version="1.0" encoding="UTF-8" standalone="no"?><!DOCTYPE svg PUBLIC "-//W3C//DTD SVG 1.1//EN" "http://www.w3.org/Graphics/SVG/1.1/DTD/svg11.dtd"><svg width="100%" height="100%" viewBox="0 0 1013 1375" version="1.1" xmlns="http://www.w3.org/2000/svg" xmlns:xlink="http://www.w3.org/1999/xlink" xml:space="preserve" xmlns:serif="http://www.serif.com/" style="fill-rule:evenodd;clip-rule:evenodd;stroke-linejoin:round;stroke-miterlimit:2;"><path d="M196.848,26.297c-12.656,-3.926 -26.114,-6.041 -40.063,-6.041c-74.671,0 -135.295,60.624 -135.295,135.295c0,26.904 7.87,51.984 21.437,73.07c-3.465,11.96 -5.322,24.598 -5.322,37.665c0,70.766 54.449,128.915 123.691,134.802c22.54,43.411 67.91,73.091 120.158,73.091c25.649,0 49.641,-7.153 70.082,-19.568c24.833,29.42 61.966,48.114 103.431,48.114c74.671,0 135.295,-60.623 135.295,-135.294c-0,-28.323 -8.722,-54.625 -23.626,-76.367c42.732,-22.746 71.855,-67.753 71.855,-119.507c0,-74.671 -60.623,-135.295 -135.294,-135.295c-41.719,0 -79.053,18.923 -103.882,48.651c-3.33,-1.028 -6.717,-1.932 -10.153,-2.704c-22.008,-44.92 -68.2,-75.886 -121.568,-75.886c-25.926,-0 -50.158,7.308 -70.746,19.974Zm349.85,273.397c-13.649,4.639 -28.283,7.157 -43.501,7.157c-13.889,0 -27.292,-2.097 -39.905,-5.991c-12.638,15.131 -28.515,27.463 -46.56,35.924c0.011,0.698 0.016,1.399 0.016,2.101c0,41.375 -18.613,78.437 -47.913,103.261c20.918,24.088 51.759,39.328 86.132,39.328c62.942,-0 114.043,-51.101 114.043,-114.043c0,-25.353 -8.291,-48.785 -22.312,-67.737Zm-240.063,39.12c-7.941,3.372 -16.269,6.006 -24.899,7.816c-22.252,30.076 -56.658,50.619 -95.936,54.342c20.348,31.266 55.604,51.956 95.654,51.956c21.022,-0 40.724,-5.701 57.649,-15.644c-12.332,-20.393 -19.431,-44.301 -19.431,-69.853c0,-7.93 0.684,-15.702 1.997,-23.264c-5.143,-1.493 -10.16,-3.284 -15.034,-5.353Zm88.717,5.862c-11.451,3.152 -23.501,4.835 -35.941,4.835c-5.728,-0 -11.372,-0.357 -16.913,-1.05c-1.035,6.166 -1.574,12.505 -1.574,18.97c-0,20.915 5.643,40.523 15.484,57.377c22.592,-19.727 37.344,-48.208 38.944,-80.132Zm-226.313,-25.082c-1.07,6.265 -1.628,12.713 -1.628,19.291c-0,14.609 2.753,28.58 7.768,41.422c29.25,-0.575 55.816,-12.185 75.695,-30.83c-30.947,-0.673 -59.347,-11.756 -81.835,-29.883Zm-109.033,-69.538c-0.758,5.306 -1.149,10.723 -1.149,16.23c0,55.817 40.187,102.322 93.181,112.136c-3.822,-12.505 -5.879,-25.783 -5.879,-39.537c0,-12.687 1.75,-24.968 5.02,-36.607c-3.348,-3.899 -6.478,-7.991 -9.369,-12.254c-31.919,-3.522 -60.506,-18.165 -81.804,-39.968Zm167.525,20.815c-14.617,8.993 -31.072,15.285 -48.667,18.178c-1.255,2.576 -2.415,5.206 -3.478,7.887c20.445,19.407 48.078,31.323 78.473,31.323c5.237,-0 10.392,-0.354 15.435,-1.038c1.671,-2.636 3.237,-5.345 4.69,-8.119c-15.095,-12.313 -27.486,-27.815 -36.141,-45.478c-3.49,-0.784 -6.93,-1.704 -10.312,-2.753Zm152.482,10.636c7.271,12.456 12.25,26.411 14.355,41.285c-11.018,3.55 -22.765,5.467 -34.957,5.467c-3.833,-0 -7.623,-0.19 -11.363,-0.561c6.689,-17.971 17.782,-33.806 31.965,-46.191Zm-29.272,-33.185c-12.609,9.844 -27.007,17.503 -42.618,22.404c-0.464,14.357 -3.169,28.152 -7.777,41.044c2.054,1.247 4.151,2.431 6.289,3.55c24.126,-12.631 43.182,-33.643 53.292,-59.156c-2.92,-2.771 -5.986,-5.389 -9.186,-7.842Zm54.464,16.483c-2.689,1.307 -5.32,2.718 -7.887,4.226c8.245,13.635 14.151,28.841 17.159,45.057c10.402,-5.752 19.811,-13.081 27.904,-21.663c-13.945,-7.036 -26.511,-16.415 -37.176,-27.62Zm-118.637,10.784c-6.205,0.872 -12.537,1.323 -18.974,1.323c-1.157,-0 -2.311,-0.015 -3.467,-0.044c5.189,7.873 11.329,15.066 18.258,21.418c2.13,-7.289 3.551,-14.882 4.183,-22.697Zm200.856,-17.508c-2.922,8.518 -6.671,16.653 -11.153,24.316c8.64,2.094 17.654,3.203 26.926,3.203c9.498,-0 18.726,-1.164 27.558,-3.359c-12.342,-10.988 -27.082,-19.338 -43.331,-24.16Zm-21.094,-4.133c-2.796,7.513 -6.361,14.651 -10.6,21.319c-10.366,-4.757 -19.902,-11.025 -28.321,-18.521c8.832,-2.195 18.06,-3.358 27.558,-3.358c3.833,-0 7.622,0.189 11.363,0.56Zm86.628,20.235c38.041,-18.498 64.282,-57.522 64.282,-102.626c-0,-62.942 -51.101,-114.043 -114.043,-114.043c-32.68,-0 -62.167,13.775 -82.971,35.834c44.16,22.279 74.479,68.06 74.479,120.868c0,7.93 -0.683,15.702 -1.996,23.263c23.276,6.759 43.972,19.606 60.249,36.704Zm-410.967,-82.223c-1.427,7.197 -2.175,14.64 -2.175,22.256c-0,20.078 5.2,38.952 14.327,55.347c0.882,0.021 1.761,0.031 2.642,0.031c2.914,-0 5.803,-0.11 8.661,-0.325c4.878,-8.105 10.58,-15.658 16.993,-22.545c-17.755,-14.406 -31.795,-33.218 -40.448,-54.764Zm-12.452,-31.171c-28.844,11.879 -51.764,35.253 -63.042,64.405c15.403,19.932 37.253,34.632 62.412,40.962c-6.664,-15.995 -10.345,-33.541 -10.345,-51.94c0,-18.967 3.912,-37.027 10.975,-53.427Zm70.636,98.131c-1.086,1.103 -2.149,2.229 -3.189,3.374c1.799,-0.678 3.576,-1.401 5.33,-2.166c-0.718,-0.397 -1.432,-0.8 -2.141,-1.208Zm79,-34.056c-2.141,0.042 -4.269,0.144 -6.382,0.303c-5.884,9.776 -12.969,18.75 -21.048,26.716c0.332,0.947 0.676,1.888 1.03,2.821c4.849,0.631 9.796,0.956 14.819,0.956c6.37,0 12.618,-0.523 18.707,-1.53c-1.084,-10.216 -3.519,-20.031 -7.126,-29.266Zm107.469,15.396c-0.698,3.572 -1.536,7.094 -2.51,10.563c0.252,0.293 0.503,0.588 0.75,0.881c2.175,-1.321 4.391,-2.582 6.644,-3.781c-1.711,-2.496 -3.341,-5.052 -4.884,-7.663Zm-84.328,-13.511c2.16,7.068 3.756,14.382 4.735,21.89c8.587,-3.171 16.688,-7.346 24.161,-12.382c-9.033,-4.391 -18.728,-7.625 -28.896,-9.508Zm-75.928,12.263c-2.932,1.622 -5.785,3.368 -8.552,5.233c2.204,1.071 4.448,2.074 6.727,3.005c1.033,-0.765 2.052,-1.546 3.056,-2.343c-0.453,-1.949 -0.864,-3.913 -1.231,-5.895Zm180.489,-128.507c-2.039,3.208 -3.922,6.525 -5.639,9.94c1.086,6.892 1.651,13.966 1.651,21.172c-0,19.168 -3.995,37.411 -11.199,53.945c3.453,16.098 10.31,30.939 19.776,43.731c13.649,-4.639 28.283,-7.157 43.501,-7.157c5.727,-0 11.372,0.357 16.913,1.049c1.035,-6.166 1.574,-12.505 1.574,-18.969c-0,-46.011 -27.307,-85.694 -66.577,-103.711Zm-174.912,58.227c-17.233,-10.463 -37.451,-16.489 -59.065,-16.489c-5.237,0 -10.392,0.354 -15.435,1.038c-0.956,1.508 -1.877,3.039 -2.761,4.592c4.316,30.187 20.471,56.575 43.603,74.307c7.945,-6.203 16.6,-11.538 25.826,-15.864c-0.012,-0.698 -0.017,-1.398 -0.017,-2.1c0,-15.957 2.769,-31.273 7.849,-45.484Zm74.67,-55.621c-6.4,3.351 -12.444,7.292 -18.058,11.749c2.29,9.855 3.503,20.132 3.503,30.691c-0,13.067 -1.857,25.704 -5.322,37.665c2.262,3.515 4.365,7.141 6.3,10.866c20.191,1.717 39.124,7.878 55.815,17.5c6.93,-7.043 12.953,-14.981 17.877,-23.622c-5.283,-36.939 -28.291,-68.191 -60.115,-84.849Zm-56.709,69.105c-2.448,8.376 -3.96,17.154 -4.413,26.209c4.531,-1.247 9.156,-2.265 13.862,-3.038c1.388,-2.85 2.661,-5.767 3.813,-8.744c-4.004,-5.182 -8.444,-10.01 -13.262,-14.427Zm-74.88,-139.251c-5.952,-0.96 -12.049,-1.457 -18.261,-1.457c-62.942,-0 -114.043,51.101 -114.043,114.043c-0,17.025 3.739,33.185 10.438,47.695c16.518,-31.275 44.93,-55.312 79.192,-66.069c1.199,-37.108 17.372,-70.461 42.674,-94.212Zm95.124,100.273c-4.496,5.644 -8.468,11.722 -11.843,18.162c3.977,3.244 7.766,6.709 11.352,10.381c0.758,-5.306 1.149,-10.723 1.149,-16.23c0,-4.161 -0.223,-8.27 -0.658,-12.313Zm-13.669,-43.035c-0.882,-0.02 -1.761,-0.03 -2.642,-0.03c-30.143,-0 -57.57,11.72 -77.974,30.851c23.595,0.514 45.71,7.078 64.856,18.204c6.362,-11.586 14.372,-22.141 23.709,-31.344c-2.154,-6.149 -4.82,-12.058 -7.949,-17.681Zm117.729,0.926c-4.849,-0.631 -9.797,-0.956 -14.819,-0.956c-9.555,-0 -18.837,1.177 -27.715,3.397c15.683,11.058 28.916,25.365 38.716,41.942c1.896,-9.707 4.832,-19.045 8.689,-27.9c-1.215,-5.662 -2.85,-11.169 -4.871,-16.483Zm-174.414,-51.211c-22.946,16.992 -39.303,42.393 -44.502,71.635c22.081,-23.471 52.44,-39.063 86.391,-42.092c-11.456,-12.776 -25.752,-22.957 -41.889,-29.543Zm163.062,29.047c-20.399,-30.948 -55.473,-51.391 -95.284,-51.391c-16.182,0 -31.582,3.378 -45.531,9.466c18.757,10.361 34.798,25.046 46.771,42.703c13.271,1.464 25.966,4.851 37.801,9.875c16.218,-6.886 34.056,-10.697 52.776,-10.697c1.157,0 2.311,0.015 3.467,0.044Z" style="fill:none;stroke:#000;stroke-width:3.33px;"/></svg>