<?xml version="1.0" encoding="UTF-8" standalone="no"?><!DOCTYPE svg PUBLIC "-//W3C//DTD SVG 1.1//EN" "http://www.w3.org/Graphics/SVG/1.1/DTD/svg11.dtd"><svg width="100%" height="100%" viewBox="0 0 1013 1375" version="1.1" xmlns="http://www.w3.org/2000/svg" xmlns:xlink="http://www.w3.org/1999/xlink" xml:space="preserve" xmlns:serif="http://www.serif.com/" style="fill-rule:evenodd;clip-rule:evenodd;stroke-linejoin:round;stroke-miterlimit:2;"><path d="M34.149,61.651l10.639,-0c2.936,-0 5.32,-3.268 5.32,-7.292c-0,-4.024 -2.384,-7.292 -5.32,-7.292l-10.639,0c-2.935,0 -5.319,3.268 -5.319,7.292c-0,4.024 2.384,7.292 5.319,7.292Zm31.917,-0l10.639,-0c2.936,-0 5.32,-3.268 5.32,-7.292c-0,-4.024 -2.384,-7.292 -5.32,-7.292l-10.639,0c-2.935,0 -5.319,3.268 -5.319,7.292c-0,4.024 2.384,7.292 5.319,7.292Zm255.336,-0l10.639,-0c2.936,-0 5.319,-3.268 5.319,-7.292c0,-4.024 -2.383,-7.292 -5.319,-7.292l-10.639,0c-2.936,0 -5.32,3.268 -5.32,7.292c0,4.024 2.384,7.292 5.32,7.292Zm31.917,-0l10.639,-0c2.936,-0 5.319,-3.268 5.319,-7.292c0,-4.024 -2.383,-7.292 -5.319,-7.292l-10.639,0c-2.936,0 -5.32,3.268 -5.32,7.292c0,4.024 2.384,7.292 5.32,7.292Zm31.917,-0l10.639,-0c2.936,-0 5.319,-3.268 5.319,-7.292c0,-4.024 -2.383,-7.292 -5.319,-7.292l-10.639,0c-2.936,0 -5.32,3.268 -5.32,7.292c0,4.024 2.384,7.292 5.32,7.292Zm63.834,-0l10.639,-0c2.935,-0 5.319,-3.268 5.319,-7.292c0,-4.024 -2.384,-7.292 -5.319,-7.292l-10.639,0c-2.936,0 -5.32,3.268 -5.32,7.292c0,4.024 2.384,7.292 5.32,7.292Zm31.643,-0.01l0.273,0.01l2.663,-0c-0,-0 7.054,-14.584 -0.028,-14.584l-2.635,0c-2.935,0 -5.319,3.268 -5.319,7.292c-0,3.898 2.237,7.086 5.046,7.282Zm-382.73,0.01l10.64,-0c2.936,-0 5.319,-3.268 5.319,-7.292c0,-4.024 -2.383,-7.292 -5.319,-7.292l-10.64,0c-2.935,0 -5.319,3.268 -5.319,7.292c-0,4.024 2.384,7.292 5.319,7.292Zm31.917,-0l10.639,-0c2.936,-0 5.319,-3.268 5.319,-7.292c0,-4.024 -2.383,-7.292 -5.319,-7.292l-10.639,0c-2.936,0 -5.319,3.268 -5.319,7.292c-0,4.024 2.383,7.292 5.319,7.292Zm31.917,-0l10.639,-0c2.936,-0 5.319,-3.268 5.319,-7.292c0,-4.024 -2.383,-7.292 -5.319,-7.292l-10.639,0c-2.936,0 -5.32,3.268 -5.32,7.292c0,4.024 2.384,7.292 5.32,7.292Zm31.917,-0l10.639,-0c2.936,-0 5.32,-3.268 5.32,-7.292c-0,-4.024 -2.384,-7.292 -5.32,-7.292l-10.639,0c-2.936,0 -5.319,3.268 -5.319,7.292c-0,4.024 2.383,7.292 5.319,7.292Zm95.751,-0l10.639,-0c2.936,-0 5.319,-3.268 5.319,-7.292c0,-4.024 -2.383,-7.292 -5.319,-7.292l-10.639,0c-2.936,0 -5.32,3.268 -5.32,7.292c0,4.024 2.384,7.292 5.32,7.292Zm127.668,-0l10.639,-0c2.936,-0 5.319,-3.268 5.319,-7.292c0,-4.024 -2.383,-7.292 -5.319,-7.292l-10.639,0c-2.936,0 -5.32,3.268 -5.32,7.292c0,4.024 2.384,7.292 5.32,7.292Zm-191.502,-0l10.639,-0c2.936,-0 5.319,-3.268 5.319,-7.292c0,-4.024 -2.383,-7.292 -5.319,-7.292l-10.639,0c-2.936,0 -5.32,3.268 -5.32,7.292c0,4.024 2.384,7.292 5.32,7.292Zm31.917,-0l10.639,-0c2.936,-0 5.319,-3.268 5.319,-7.292c0,-4.024 -2.383,-7.292 -5.319,-7.292l-10.639,0c-2.936,0 -5.32,3.268 -5.32,7.292c0,4.024 2.384,7.292 5.32,7.292Z"/><path d="M417.153,91.731l10.639,-0c2.936,-0 5.319,-3.267 5.319,-7.292c0,-4.024 -2.383,-7.292 -5.319,-7.292l-10.639,0c-2.936,0 -5.32,3.268 -5.32,7.292c0,4.025 2.384,7.292 5.32,7.292Zm-319.17,-0l10.64,-0c2.936,-0 5.319,-3.267 5.319,-7.292c0,-4.024 -2.383,-7.292 -5.319,-7.292l-10.64,0c-2.935,0 -5.319,3.268 -5.319,7.292c-0,4.025 2.384,7.292 5.319,7.292Zm223.419,-0l10.639,-0c2.936,-0 5.319,-3.267 5.319,-7.292c0,-4.024 -2.383,-7.292 -5.319,-7.292l-10.639,0c-2.936,0 -5.32,3.268 -5.32,7.292c0,4.025 2.384,7.292 5.32,7.292Zm31.917,-0l10.639,-0c2.936,-0 5.319,-3.267 5.319,-7.292c0,-4.024 -2.383,-7.292 -5.319,-7.292l-10.639,0c-2.936,0 -5.32,3.268 -5.32,7.292c0,4.025 2.384,7.292 5.32,7.292Zm31.917,-0l10.639,-0c2.936,-0 5.319,-3.267 5.319,-7.292c0,-4.024 -2.383,-7.292 -5.319,-7.292l-10.639,0c-2.936,0 -5.32,3.268 -5.32,7.292c0,4.025 2.384,7.292 5.32,7.292Zm-351.087,-0l10.639,-0c2.936,-0 5.32,-3.267 5.32,-7.292c-0,-4.024 -2.384,-7.292 -5.32,-7.292l-10.639,0c-2.935,0 -5.319,3.268 -5.319,7.292c-0,4.025 2.384,7.292 5.319,7.292Zm31.917,-0l10.639,-0c2.936,-0 5.32,-3.267 5.32,-7.292c-0,-4.024 -2.384,-7.292 -5.32,-7.292l-10.639,0c-2.935,0 -5.319,3.268 -5.319,7.292c-0,4.025 2.384,7.292 5.319,7.292Zm63.834,-0l10.639,-0c2.936,-0 5.319,-3.267 5.319,-7.292c0,-4.024 -2.383,-7.292 -5.319,-7.292l-10.639,0c-2.936,0 -5.319,3.268 -5.319,7.292c-0,4.025 2.383,7.292 5.319,7.292Zm31.917,-0l10.639,-0c2.936,-0 5.319,-3.267 5.319,-7.292c0,-4.024 -2.383,-7.292 -5.319,-7.292l-10.639,0c-2.936,0 -5.32,3.268 -5.32,7.292c0,4.025 2.384,7.292 5.32,7.292Zm31.917,-0l10.639,-0c2.936,-0 5.32,-3.267 5.32,-7.292c-0,-4.024 -2.384,-7.292 -5.32,-7.292l-10.639,0c-2.936,0 -5.319,3.268 -5.319,7.292c-0,4.025 2.383,7.292 5.319,7.292Zm31.917,-0l10.639,-0c2.936,-0 5.319,-3.267 5.319,-7.292c0,-4.024 -2.383,-7.292 -5.319,-7.292l-10.639,0c-2.936,0 -5.32,3.268 -5.32,7.292c0,4.025 2.384,7.292 5.32,7.292Zm31.917,-0l10.639,-0c2.936,-0 5.319,-3.267 5.319,-7.292c0,-4.024 -2.383,-7.292 -5.319,-7.292l-10.639,0c-2.936,0 -5.32,3.268 -5.32,7.292c0,4.025 2.384,7.292 5.32,7.292Zm31.917,-0l10.639,-0c2.936,-0 5.319,-3.267 5.319,-7.292c0,-4.024 -2.383,-7.292 -5.319,-7.292l-10.639,0c-2.936,0 -5.32,3.268 -5.32,7.292c0,4.025 2.384,7.292 5.32,7.292Zm191.228,-0.01l0.273,0.01l2.663,-0c-0,-0 7.054,-14.584 -0.028,-14.584l-2.635,0c-2.935,0 -5.319,3.268 -5.319,7.292c-0,3.899 2.237,7.087 5.046,7.282Zm-31.643,0.01l10.639,-0c2.935,-0 5.319,-3.267 5.319,-7.292c0,-4.024 -2.384,-7.292 -5.319,-7.292l-10.639,0c-2.936,0 -5.32,3.268 -5.32,7.292c0,4.025 2.384,7.292 5.32,7.292Z"/><path d="M353.319,121.811l10.639,-0c2.936,-0 5.319,-3.267 5.319,-7.292c0,-4.024 -2.383,-7.291 -5.319,-7.291l-10.639,-0c-2.936,-0 -5.32,3.267 -5.32,7.291c0,4.025 2.384,7.292 5.32,7.292Zm-319.17,-0l10.639,-0c2.936,-0 5.32,-3.267 5.32,-7.292c-0,-4.024 -2.384,-7.291 -5.32,-7.291l-10.639,-0c-2.935,-0 -5.319,3.267 -5.319,7.291c-0,4.025 2.384,7.292 5.319,7.292Zm255.336,-0l10.639,-0c2.936,-0 5.319,-3.267 5.319,-7.292c0,-4.024 -2.383,-7.291 -5.319,-7.291l-10.639,-0c-2.936,-0 -5.32,3.267 -5.32,7.291c0,4.025 2.384,7.292 5.32,7.292Zm31.917,-0l10.639,-0c2.936,-0 5.319,-3.267 5.319,-7.292c0,-4.024 -2.383,-7.291 -5.319,-7.291l-10.639,-0c-2.936,-0 -5.32,3.267 -5.32,7.291c0,4.025 2.384,7.292 5.32,7.292Zm63.834,-0l10.639,-0c2.936,-0 5.319,-3.267 5.319,-7.292c0,-4.024 -2.383,-7.291 -5.319,-7.291l-10.639,-0c-2.936,-0 -5.32,3.267 -5.32,7.291c0,4.025 2.384,7.292 5.32,7.292Zm31.917,-0l10.639,-0c2.936,-0 5.319,-3.267 5.319,-7.292c0,-4.024 -2.383,-7.291 -5.319,-7.291l-10.639,-0c-2.936,-0 -5.32,3.267 -5.32,7.291c0,4.025 2.384,7.292 5.32,7.292Zm-351.087,-0l10.639,-0c2.936,-0 5.32,-3.267 5.32,-7.292c-0,-4.024 -2.384,-7.291 -5.32,-7.291l-10.639,-0c-2.935,-0 -5.319,3.267 -5.319,7.291c-0,4.025 2.384,7.292 5.319,7.292Zm63.834,-0l10.639,-0c2.936,-0 5.319,-3.267 5.319,-7.292c0,-4.024 -2.383,-7.291 -5.319,-7.291l-10.639,-0c-2.936,-0 -5.319,3.267 -5.319,7.291c-0,4.025 2.383,7.292 5.319,7.292Zm31.917,-0l10.639,-0c2.936,-0 5.319,-3.267 5.319,-7.292c0,-4.024 -2.383,-7.291 -5.319,-7.291l-10.639,-0c-2.936,-0 -5.32,3.267 -5.32,7.291c0,4.025 2.384,7.292 5.32,7.292Zm31.917,-0l10.639,-0c2.936,-0 5.32,-3.267 5.32,-7.292c-0,-4.024 -2.384,-7.291 -5.32,-7.291l-10.639,-0c-2.936,-0 -5.319,3.267 -5.319,7.291c-0,4.025 2.383,7.292 5.319,7.292Zm31.917,-0l10.639,-0c2.936,-0 5.319,-3.267 5.319,-7.292c0,-4.024 -2.383,-7.291 -5.319,-7.291l-10.639,-0c-2.936,-0 -5.32,3.267 -5.32,7.291c0,4.025 2.384,7.292 5.32,7.292Zm31.917,-0l10.639,-0c2.936,-0 5.319,-3.267 5.319,-7.292c0,-4.024 -2.383,-7.291 -5.319,-7.291l-10.639,-0c-2.936,-0 -5.32,3.267 -5.32,7.291c0,4.025 2.384,7.292 5.32,7.292Zm223.145,-0.01l0.273,0.01l2.663,-0c-0,-0 7.054,-14.583 -0.028,-14.583l-2.635,-0c-2.935,-0 -5.319,3.267 -5.319,7.291c-0,3.899 2.237,7.087 5.046,7.282Zm-382.73,0.01l10.64,-0c2.936,-0 5.319,-3.267 5.319,-7.292c0,-4.024 -2.383,-7.291 -5.319,-7.291l-10.64,-0c-2.935,-0 -5.319,3.267 -5.319,7.291c-0,4.025 2.384,7.292 5.319,7.292Zm351.087,-0l10.639,-0c2.935,-0 5.319,-3.267 5.319,-7.292c0,-4.024 -2.384,-7.291 -5.319,-7.291l-10.639,-0c-2.936,-0 -5.32,3.267 -5.32,7.291c0,4.025 2.384,7.292 5.32,7.292Z"/></svg>