<?xml version="1.0" encoding="UTF-8" standalone="no"?><!DOCTYPE svg PUBLIC "-//W3C//DTD SVG 1.1//EN" "http://www.w3.org/Graphics/SVG/1.1/DTD/svg11.dtd"><svg width="100%" height="100%" viewBox="0 0 1013 1375" version="1.1" xmlns="http://www.w3.org/2000/svg" xmlns:xlink="http://www.w3.org/1999/xlink" xml:space="preserve" xmlns:serif="http://www.serif.com/" style="fill-rule:evenodd;clip-rule:evenodd;stroke-linejoin:round;stroke-miterlimit:2;"><g><path d="M44.39,410.998l-5.3,-7.612l38.531,-12.753c1.307,-0.436 2.082,-1.025 2.323,-1.767c0.242,-0.742 -0.182,-1.895 -1.27,-3.458l1.231,-0.375c1.735,2.423 3.432,4.469 5.091,6.137c1.66,1.669 3.399,3.164 5.219,4.484l-45.825,15.344Zm7.693,-3.651c4.683,-1.345 8.617,-2.31 11.803,-2.893c3.186,-0.584 5.822,-0.824 7.907,-0.722c2.085,0.102 3.776,0.527 5.073,1.273c1.296,0.746 2.387,1.754 3.272,3.025c1.097,1.576 1.562,2.942 1.394,4.096c-0.167,1.155 -0.794,2.129 -1.881,2.924c-1.086,0.794 -2.432,1.428 -4.036,1.9l-17.457,5.146c-1.093,0.307 -1.718,0.662 -1.874,1.064c-0.157,0.402 -0.123,0.763 0.099,1.082c0.244,0.351 0.733,0.624 1.466,0.82c0.733,0.195 2.017,0.058 3.849,-0.413l3.146,-0.811l0.634,0.91l-4.328,1.236c-1.652,0.486 -3.083,0.609 -4.294,0.367c-1.211,-0.242 -2.247,-0.692 -3.107,-1.349c-0.86,-0.656 -1.577,-1.396 -2.15,-2.22c-1.12,-1.609 -1.58,-3.032 -1.381,-4.27c0.199,-1.238 0.898,-2.291 2.095,-3.157c1.197,-0.867 2.673,-1.565 4.427,-2.095l15.584,-4.61c0.685,-0.201 1.266,-0.421 1.745,-0.659c0.478,-0.238 0.81,-0.486 0.996,-0.744c0.185,-0.257 0.163,-0.552 -0.069,-0.884c-0.395,-0.568 -1.268,-0.934 -2.619,-1.097c-1.351,-0.164 -3.044,-0.143 -5.081,0.062c-2.037,0.205 -4.303,0.565 -6.797,1.079c-2.495,0.514 -5.086,1.146 -7.773,1.894c-2.688,0.747 -5.344,1.604 -7.97,2.57l7.327,-3.524Z" style="fill:none;fill-rule:nonzero;stroke:#000;stroke-width:2.71px;"/><path d="M95.082,413.119c1.496,-1.143 3.01,-1.522 4.541,-1.136c1.53,0.386 2.861,1.287 3.991,2.704c0.979,1.228 1.458,2.371 1.436,3.429c-0.023,1.057 -0.538,1.963 -1.547,2.718c-1.326,1.008 -2.79,1.337 -4.391,0.987c-1.602,-0.349 -2.97,-1.236 -4.105,-2.658c-0.955,-1.199 -1.422,-2.326 -1.399,-3.384c0.022,-1.057 0.514,-1.944 1.474,-2.66Zm-12.712,7.168c1.771,-0.647 2.349,-1.357 1.734,-2.129c-0.403,-0.505 -1.014,-0.779 -1.834,-0.822c-0.82,-0.042 -2.01,0.181 -3.57,0.669l-3.334,1.077l-0.691,-0.866l4.515,-1.542c1.524,-0.509 2.886,-0.71 4.086,-0.602c1.2,0.108 2.285,0.468 3.257,1.081c0.971,0.613 1.835,1.394 2.592,2.343c0.892,1.118 1.4,2.161 1.524,3.127c0.123,0.966 -0.024,1.829 -0.442,2.59c-0.418,0.761 -1.012,1.423 -1.781,1.987c-0.769,0.563 -1.612,1.012 -2.53,1.346l-17.806,6.394c-0.988,0.37 -1.578,0.749 -1.772,1.137c-0.193,0.388 -0.146,0.761 0.14,1.12c0.271,0.34 0.781,0.581 1.529,0.72c0.748,0.14 2.018,-0.077 3.809,-0.65l3.094,-1.004l0.691,0.867l-4.246,1.505c-1.618,0.554 -3.034,0.758 -4.249,0.613c-1.215,-0.146 -2.277,-0.517 -3.187,-1.115c-0.909,-0.598 -1.681,-1.295 -2.317,-2.092c-1.062,-1.331 -1.61,-2.605 -1.644,-3.821c-0.035,-1.216 0.465,-2.336 1.499,-3.359c1.034,-1.024 2.582,-1.915 4.643,-2.673l16.29,-5.901Z" style="fill:none;fill-rule:nonzero;stroke:#000;stroke-width:2.71px;"/><path d="M105.205,425.362c1.446,-1.206 2.942,-1.649 4.488,-1.329c1.546,0.32 2.914,1.164 4.103,2.532c1.031,1.185 1.558,2.307 1.58,3.364c0.023,1.058 -0.453,1.985 -1.429,2.782c-1.282,1.063 -2.73,1.454 -4.345,1.173c-1.615,-0.281 -3.02,-1.108 -4.214,-2.481c-1.006,-1.157 -1.52,-2.263 -1.543,-3.321c-0.022,-1.057 0.431,-1.964 1.36,-2.72Zm-12.396,7.703c1.743,-0.723 2.29,-1.456 1.643,-2.201c-0.424,-0.488 -1.047,-0.735 -1.867,-0.743c-0.821,-0.008 -2.001,0.266 -3.539,0.82l-3.285,1.218l-0.728,-0.836l4.446,-1.733c1.501,-0.573 2.853,-0.831 4.056,-0.775c1.204,0.056 2.304,0.37 3.301,0.941c0.996,0.571 1.893,1.315 2.689,2.23c0.939,1.08 1.491,2.1 1.656,3.06c0.164,0.96 0.054,1.829 -0.331,2.607c-0.385,0.777 -0.95,1.464 -1.695,2.06c-0.744,0.596 -1.568,1.08 -2.47,1.453l-17.517,7.147c-0.972,0.412 -1.546,0.815 -1.722,1.211c-0.177,0.396 -0.114,0.767 0.187,1.113c0.286,0.329 0.805,0.547 1.558,0.655c0.753,0.107 2.013,-0.163 3.778,-0.812l3.049,-1.135l0.727,0.837l-4.178,1.684c-1.593,0.623 -2.999,0.887 -4.219,0.793c-1.22,-0.093 -2.298,-0.419 -3.232,-0.978c-0.934,-0.558 -1.735,-1.222 -2.404,-1.99c-1.117,-1.286 -1.719,-2.535 -1.806,-3.748c-0.086,-1.214 0.366,-2.354 1.355,-3.42c0.99,-1.067 2.498,-2.023 4.525,-2.869l16.023,-6.589Z" style="fill:none;fill-rule:nonzero;stroke:#000;stroke-width:2.71px;"/><path d="M123.469,461.849c-0.506,-0.483 -1.339,-0.696 -2.498,-0.636c-1.16,0.059 -2.537,0.351 -4.131,0.876c-1.595,0.526 -3.294,1.228 -5.098,2.108c-1.804,0.88 -3.606,1.901 -5.406,3.064l4.815,-3.468c3.037,-1.476 5.648,-2.534 7.834,-3.171c2.186,-0.638 4.059,-0.846 5.618,-0.626c1.559,0.221 2.89,0.858 3.992,1.911c1.838,1.757 2.663,3.649 2.475,5.675c-0.188,2.026 -1.312,4.115 -3.37,6.268c-1.252,1.311 -2.78,2.524 -4.584,3.64c-1.804,1.116 -3.763,2.035 -5.879,2.757c-2.115,0.721 -4.272,1.154 -6.469,1.297c-2.198,0.143 -4.328,-0.102 -6.391,-0.735c-2.064,-0.633 -3.95,-1.767 -5.659,-3.4c-0.798,-0.763 -1.382,-1.59 -1.752,-2.482c-0.369,-0.891 -0.513,-1.717 -0.431,-2.478l0.884,-0.317c-0.004,0.523 0.073,0.985 0.233,1.385c0.16,0.401 0.423,0.776 0.789,1.125c0.798,0.763 1.917,1.163 3.356,1.2c1.44,0.036 3.055,-0.219 4.847,-0.766c1.793,-0.546 3.638,-1.297 5.536,-2.253c1.898,-0.956 3.708,-2.051 5.43,-3.283c1.721,-1.233 3.23,-2.526 4.525,-3.882c0.989,-1.034 1.557,-1.833 1.704,-2.398c0.147,-0.564 0.023,-1.034 -0.37,-1.411Zm-26.64,11.171c-0.878,-1.108 -2.051,-2.053 -3.518,-2.837c-1.467,-0.784 -2.933,-1.446 -4.397,-1.985l-0.351,-0.9c0.573,-0.205 1.129,-0.44 1.668,-0.706c0.538,-0.265 1.073,-0.569 1.604,-0.911l32.561,-18.681c1.184,-0.698 1.825,-1.43 1.923,-2.197c0.098,-0.767 -0.541,-1.809 -1.919,-3.125l1.125,-0.62c2.18,2.031 4.244,3.693 6.19,4.989c1.946,1.296 3.942,2.41 5.988,3.343l-40.874,23.63Z" style="fill:none;fill-rule:nonzero;stroke:#000;stroke-width:2.71px;"/><path d="M119,494.583l-7.22,-5.822l21.376,-15.211c0.821,-0.597 1.323,-1.081 1.508,-1.451c0.184,-0.371 0.091,-0.706 -0.278,-1.004c-0.496,-0.4 -1.144,-0.538 -1.944,-0.413c-0.8,0.124 -1.918,0.606 -3.355,1.446l-3.011,1.784l-0.863,-0.696l4.063,-2.494c1.377,-0.828 2.662,-1.321 3.853,-1.479c1.192,-0.158 2.326,-0.045 3.401,0.337c1.075,0.382 2.085,0.954 3.03,1.716c1.005,0.81 1.634,1.632 1.886,2.465c0.253,0.833 0.236,1.659 -0.049,2.478c-0.286,0.819 -0.735,1.593 -1.348,2.322c-0.614,0.73 -1.301,1.382 -2.064,1.956l-18.985,14.066Zm30.308,-13.854c-0.6,-0.483 -1.345,-0.857 -2.236,-1.121c-0.891,-0.264 -2.037,-0.268 -3.436,-0.013c-1.4,0.255 -3.163,0.887 -5.289,1.895c-2.127,1.008 -4.733,2.53 -7.82,4.568c-3.086,2.037 -6.749,4.724 -10.988,8.061l6.028,-5.451c3.69,-2.68 6.824,-4.823 9.404,-6.43c2.58,-1.607 4.783,-2.751 6.61,-3.43c1.827,-0.68 3.409,-0.923 4.746,-0.729c1.338,0.194 2.591,0.762 3.759,1.704c1.308,1.055 1.999,2.251 2.073,3.59c0.075,1.339 -0.349,2.581 -1.272,3.725c-0.742,0.921 -1.638,1.61 -2.686,2.068c-1.049,0.458 -2.123,0.641 -3.223,0.549c-1.1,-0.092 -2.107,-0.507 -3.021,-1.244c-0.999,-0.806 -1.555,-1.681 -1.667,-2.626c-0.112,-0.945 0.234,-1.917 1.04,-2.916c0.664,-0.823 1.48,-1.427 2.448,-1.81c0.969,-0.383 1.989,-0.557 3.06,-0.523c1.071,0.035 2.058,0.291 2.961,0.77c-0.055,-0.105 -0.121,-0.213 -0.196,-0.324c-0.076,-0.111 -0.174,-0.215 -0.295,-0.313Z" style="fill:none;fill-rule:nonzero;stroke:#000;stroke-width:2.71px;"/><path d="M161.805,477.499c1.118,-1.515 2.465,-2.301 4.043,-2.358c1.578,-0.057 3.107,0.437 4.587,1.483c1.284,0.906 2.062,1.87 2.336,2.891c0.274,1.022 0.032,2.036 -0.727,3.043c-0.992,1.337 -2.306,2.062 -3.941,2.173c-1.635,0.111 -3.196,-0.358 -4.683,-1.408c-1.252,-0.883 -2.015,-1.836 -2.288,-2.858c-0.274,-1.021 -0.05,-2.01 0.673,-2.966Zm-10.207,10.431c1.521,-1.116 1.878,-1.959 1.071,-2.528c-0.527,-0.373 -1.191,-0.465 -1.99,-0.277c-0.799,0.188 -1.879,0.734 -3.241,1.639l-2.902,1.964l-0.905,-0.639l3.906,-2.741c1.321,-0.914 2.573,-1.486 3.755,-1.718c1.182,-0.231 2.325,-0.188 3.429,0.129c1.104,0.318 2.152,0.826 3.143,1.526c1.169,0.826 1.948,1.685 2.336,2.578c0.389,0.893 0.488,1.763 0.299,2.611c-0.189,0.847 -0.574,1.648 -1.155,2.404c-0.582,0.756 -1.266,1.422 -2.054,1.999l-15.314,11.11c-0.845,0.631 -1.307,1.16 -1.384,1.586c-0.077,0.426 0.072,0.772 0.446,1.036c0.356,0.252 0.913,0.34 1.67,0.265c0.757,-0.074 1.916,-0.637 3.476,-1.687l2.691,-1.827l0.906,0.639l-3.658,2.63c-1.398,0.984 -2.702,1.575 -3.909,1.775c-1.207,0.199 -2.331,0.139 -3.371,-0.182c-1.04,-0.32 -1.976,-0.773 -2.809,-1.361c-1.391,-0.983 -2.273,-2.053 -2.646,-3.211c-0.372,-1.158 -0.205,-2.372 0.503,-3.644c0.707,-1.271 1.944,-2.559 3.712,-3.862l13.995,-10.214Z" style="fill:none;fill-rule:nonzero;stroke:#000;stroke-width:2.71px;"/><path d="M132.347,519.082l0.847,-0.772c1.49,0.917 3.166,1.225 5.028,0.924c1.862,-0.301 3.858,-1.453 5.987,-3.457l20.985,-18.593c0.757,-0.669 1.205,-1.201 1.345,-1.596c0.14,-0.396 -0.002,-0.731 -0.426,-1.006c-0.523,-0.338 -1.182,-0.393 -1.977,-0.166c-0.795,0.227 -1.833,0.829 -3.113,1.807l-2.803,2.078l-0.931,-0.602l3.762,-2.917c1.932,-1.483 3.791,-2.156 5.578,-2.019c1.787,0.137 3.383,0.659 4.787,1.567c1.6,1.035 2.516,2.125 2.748,3.271c0.232,1.145 0.026,2.251 -0.617,3.317c-0.643,1.066 -1.476,2.033 -2.5,2.899l-13.776,12.279c-1.628,1.587 -3.161,2.865 -4.598,3.834c-1.437,0.97 -2.848,1.701 -4.233,2.195c-1.384,0.494 -2.853,0.795 -4.404,0.903c-1.531,0.076 -3.241,-0.162 -5.131,-0.713c-1.89,-0.55 -4.076,-1.628 -6.558,-3.233Zm42.42,-32.727c1.035,-1.6 2.358,-2.482 3.968,-2.644c1.61,-0.163 3.199,0.262 4.767,1.276c1.273,0.824 2.079,1.727 2.416,2.709c0.338,0.982 0.168,1.996 -0.507,3.041c-0.908,1.404 -2.189,2.22 -3.841,2.448c-1.653,0.228 -3.263,-0.165 -4.831,-1.178c-1.273,-0.824 -2.079,-1.727 -2.416,-2.709c-0.337,-0.982 -0.189,-1.963 0.444,-2.943Z" style="fill:none;fill-rule:nonzero;stroke:#000;stroke-width:2.71px;"/><path d="M171.92,516.255c1.551,0.138 3.096,0.17 4.635,0.094c1.538,-0.076 2.98,-0.287 4.323,-0.632c2.025,-0.543 3.903,-1.412 5.634,-2.608c1.732,-1.195 3.116,-2.755 4.154,-4.679c0.313,-0.582 0.457,-1.012 0.431,-1.292c-0.026,-0.279 -0.176,-0.492 -0.45,-0.64c-0.719,-0.388 -1.706,-0.425 -2.961,-0.112c-1.255,0.312 -2.642,0.893 -4.159,1.74c-1.518,0.848 -3.047,1.903 -4.59,3.165c-1.542,1.263 -2.987,2.651 -4.333,4.165c-1.347,1.514 -2.461,3.089 -3.343,4.725c-1.045,1.938 -1.373,3.455 -0.984,4.553c0.389,1.098 1.196,1.977 2.421,2.638c0.794,0.428 2.027,0.73 3.699,0.907c1.672,0.177 3.584,-0.108 5.738,-0.856l0.6,0.854c-1.342,0.734 -2.898,1.309 -4.668,1.724c-1.771,0.415 -3.638,0.524 -5.603,0.326c-1.966,-0.198 -3.931,-0.827 -5.896,-1.887c-1.561,-0.841 -2.837,-1.883 -3.828,-3.125c-0.992,-1.241 -1.574,-2.604 -1.746,-4.089c-0.171,-1.484 0.167,-3.013 1.016,-4.588c1.03,-1.91 2.38,-3.676 4.05,-5.298c1.67,-1.623 3.555,-3.023 5.653,-4.202c2.098,-1.18 4.32,-2.052 6.666,-2.616c2.345,-0.565 4.703,-0.734 7.073,-0.507c2.37,0.226 4.654,0.932 6.851,2.117c1.664,0.897 2.866,1.998 3.607,3.303c0.74,1.305 0.718,2.687 -0.068,4.145c-0.709,1.314 -1.729,2.358 -3.059,3.129c-1.331,0.772 -2.863,1.302 -4.596,1.591c-1.733,0.289 -3.559,0.403 -5.478,0.34c-1.919,-0.063 -3.838,-0.258 -5.756,-0.585c-1.918,-0.327 -3.718,-0.741 -5.4,-1.242l0.367,-0.558Z" style="fill:none;fill-rule:nonzero;stroke:#000;stroke-width:2.71px;"/><path d="M185.063,536.181c0.222,0.268 0.475,0.5 0.758,0.697c0.283,0.196 0.635,0.387 1.055,0.572c1.196,0.525 2.357,0.575 3.483,0.148c1.127,-0.427 1.987,-1.317 2.582,-2.67c0.522,-1.189 0.794,-2.537 0.815,-4.044c0.021,-1.508 -0.123,-3.196 -0.432,-5.064c-0.259,-1.712 -0.451,-3.323 -0.577,-4.835c-0.125,-1.513 0.147,-3.03 0.816,-4.554c0.673,-1.531 1.659,-2.722 2.96,-3.574c1.3,-0.852 2.856,-1.296 4.669,-1.332c1.813,-0.036 3.823,0.431 6.03,1.401c1.403,0.617 2.693,1.383 3.87,2.3c1.178,0.916 2.013,1.978 2.507,3.185c0.493,1.207 0.396,2.593 -0.293,4.16c-0.278,0.633 -0.698,1.237 -1.26,1.809c-0.562,0.573 -1.198,0.971 -1.908,1.195c-0.71,0.223 -1.467,0.158 -2.271,-0.196c-0.969,-0.425 -1.573,-1.139 -1.812,-2.14c-0.24,-1.002 -0.098,-2.097 0.424,-3.286c0.457,-1.04 1.044,-1.897 1.761,-2.572c0.717,-0.675 1.379,-1.151 1.985,-1.428c-0.276,-0.359 -0.766,-0.693 -1.471,-1.003c-1.26,-0.553 -2.393,-0.605 -3.398,-0.155c-1.005,0.451 -1.83,1.371 -2.475,2.761c-0.347,0.79 -0.543,1.632 -0.588,2.526c-0.044,0.894 0.011,1.837 0.164,2.831c0.154,0.994 0.303,2.054 0.446,3.178c0.298,2.357 0.423,4.276 0.375,5.759c-0.049,1.482 -0.346,2.846 -0.894,4.092c-0.657,1.496 -1.658,2.677 -3.003,3.543c-1.345,0.866 -2.95,1.323 -4.814,1.37c-1.864,0.047 -3.904,-0.416 -6.118,-1.389c-1.581,-0.694 -2.999,-1.556 -4.255,-2.583c-1.256,-1.028 -2.122,-2.214 -2.598,-3.557c-0.476,-1.343 -0.351,-2.841 0.375,-4.493c0.506,-1.153 1.241,-2.026 2.202,-2.619c0.961,-0.593 1.962,-0.661 3.002,-0.204c0.997,0.438 1.606,1.196 1.829,2.275c0.222,1.079 0.045,2.274 -0.53,3.584c-0.451,1.026 -1.023,1.898 -1.717,2.616c-0.694,0.719 -1.259,1.284 -1.694,1.696Z" style="fill:none;fill-rule:nonzero;stroke:#000;stroke-width:2.71px;"/><path d="M208.486,546.804l-8.805,-2.916l23.2,-33.302c0.785,-1.133 1.052,-2.069 0.801,-2.808c-0.251,-0.738 -1.281,-1.407 -3.09,-2.006l0.762,-1.039c2.84,0.9 5.425,1.521 7.754,1.862c2.328,0.342 4.616,0.495 6.864,0.462l-27.486,39.747Zm3.971,-7.533c2.942,-3.884 5.513,-7.014 7.714,-9.39c2.2,-2.377 4.166,-4.149 5.896,-5.317c1.731,-1.168 3.339,-1.842 4.824,-2.021c1.485,-0.18 2.962,-0.027 4.432,0.46c1.823,0.604 3.014,1.419 3.571,2.443c0.558,1.025 0.64,2.181 0.247,3.468c-0.394,1.287 -1.091,2.601 -2.092,3.94l-10.89,14.582c-0.692,0.901 -0.979,1.56 -0.863,1.975c0.116,0.416 0.359,0.685 0.728,0.807c0.406,0.135 0.961,0.06 1.665,-0.223c0.704,-0.283 1.649,-1.162 2.834,-2.637l2.032,-2.535l1.052,0.349l-2.723,3.584c-1.031,1.379 -2.103,2.334 -3.218,2.867c-1.114,0.532 -2.212,0.793 -3.294,0.782c-1.083,-0.01 -2.1,-0.173 -3.052,-0.488c-1.861,-0.617 -3.083,-1.48 -3.665,-2.591c-0.583,-1.111 -0.655,-2.372 -0.216,-3.783c0.439,-1.411 1.202,-2.855 2.289,-4.33l9.712,-13.03c0.427,-0.572 0.761,-1.096 1.001,-1.574c0.24,-0.477 0.358,-0.874 0.352,-1.192c-0.006,-0.317 -0.2,-0.54 -0.585,-0.667c-0.657,-0.217 -1.575,0.013 -2.754,0.692c-1.179,0.678 -2.523,1.71 -4.03,3.095c-1.508,1.385 -3.106,3.031 -4.795,4.938c-1.688,1.906 -3.384,3.964 -5.087,6.174c-1.703,2.209 -3.316,4.487 -4.839,6.834l3.754,-7.212Z" style="fill:none;fill-rule:nonzero;stroke:#000;stroke-width:2.71px;"/><path d="M240.279,544.11c1.218,-2.487 2.187,-4.97 2.909,-7.447c0.721,-2.477 1.34,-4.924 1.856,-7.338c0.517,-2.415 1.08,-4.738 1.691,-6.968c0.293,-1.218 0.704,-2.452 1.234,-3.701c0.53,-1.249 1.182,-2.365 1.956,-3.349c0.775,-0.985 1.682,-1.722 2.722,-2.214c1.04,-0.492 2.229,-0.59 3.566,-0.295c1.421,0.313 2.417,0.967 2.991,1.961c0.573,0.994 0.652,2.29 0.236,3.887c-0.499,1.865 -1.442,3.762 -2.831,5.69c-1.389,1.928 -3.004,3.935 -4.846,6.022c-1.841,2.087 -3.693,4.289 -5.554,6.607c-1.861,2.318 -3.508,4.832 -4.942,7.542l-0.988,-0.397Zm-7.431,7.322c0.365,-1.655 1.239,-2.894 2.623,-3.716c1.383,-0.823 2.911,-1.049 4.582,-0.681c1.329,0.293 2.289,0.835 2.879,1.626c0.59,0.791 0.753,1.787 0.489,2.987c-0.215,0.972 -0.683,1.823 -1.405,2.552c-0.722,0.728 -1.594,1.261 -2.616,1.597c-1.022,0.337 -2.095,0.381 -3.219,0.133c-1.322,-0.291 -2.271,-0.829 -2.846,-1.613c-0.576,-0.784 -0.738,-1.745 -0.487,-2.885Z" style="fill:none;fill-rule:nonzero;stroke:#000;stroke-width:2.71px;"/><path d="M254.723,547.078c1.07,-2.554 1.893,-5.089 2.468,-7.604c0.575,-2.516 1.049,-4.994 1.424,-7.435c0.374,-2.441 0.801,-4.793 1.281,-7.055c0.22,-1.233 0.558,-2.488 1.014,-3.766c0.456,-1.278 1.042,-2.431 1.758,-3.458c0.715,-1.028 1.578,-1.818 2.588,-2.369c1.009,-0.552 2.19,-0.72 3.542,-0.504c1.436,0.23 2.47,0.824 3.1,1.783c0.631,0.959 0.785,2.248 0.464,3.867c-0.389,1.891 -1.221,3.839 -2.494,5.845c-1.274,2.006 -2.769,4.105 -4.485,6.296c-1.717,2.191 -3.436,4.498 -5.159,6.92c-1.722,2.423 -3.219,5.029 -4.492,7.819l-1.009,-0.339Zm-6.991,7.744c0.268,-1.674 1.068,-2.962 2.401,-3.863c1.333,-0.902 2.845,-1.218 4.535,-0.948c1.344,0.215 2.333,0.7 2.969,1.455c0.636,0.755 0.856,1.74 0.663,2.953c-0.157,0.983 -0.575,1.86 -1.254,2.63c-0.678,0.769 -1.517,1.352 -2.518,1.748c-1,0.395 -2.069,0.502 -3.206,0.32c-1.336,-0.213 -2.314,-0.694 -2.935,-1.443c-0.621,-0.749 -0.839,-1.7 -0.655,-2.852Z" style="fill:none;fill-rule:nonzero;stroke:#000;stroke-width:2.71px;"/></g></svg>