<?xml version="1.0" encoding="UTF-8" standalone="no"?><!DOCTYPE svg PUBLIC "-//W3C//DTD SVG 1.1//EN" "http://www.w3.org/Graphics/SVG/1.1/DTD/svg11.dtd"><svg width="100%" height="100%" viewBox="0 0 2481 3508" version="1.1" xmlns="http://www.w3.org/2000/svg" xmlns:xlink="http://www.w3.org/1999/xlink" xml:space="preserve" xmlns:serif="http://www.serif.com/" style="fill-rule:evenodd;clip-rule:evenodd;stroke-linecap:round;stroke-linejoin:round;stroke-miterlimit:1.5;"><g><g><path d="M209.374,320.98c-0,1.851 1.5,3.351 3.351,3.351l31.661,0c1.851,0 3.351,-1.5 3.351,-3.351l0,-102.193c0,-14.099 1.629,-25.162 5.013,-33.171c3.238,-7.665 8.679,-13.723 16.29,-18.204c7.736,-4.554 15.992,-6.836 24.771,-6.836c11.481,0 20.405,3.177 26.682,9.776c6.389,6.716 9.366,17.51 9.366,32.253c0,-0 0,118.375 0,118.375c0,1.851 1.501,3.351 3.352,3.351l31.66,0c1.851,0 3.352,-1.5 3.352,-3.351l-0,-118.375c-0,-18.908 -2.355,-33.318 -6.9,-43.256c-4.696,-10.271 -12.47,-18.34 -23.366,-24.164c-10.651,-5.693 -23.192,-8.575 -37.638,-8.575c-20.637,0 -38.164,6.878 -52.581,20.638c-0.001,0.001 -0.001,-84.125 -0.001,-84.125c0,-1.851 -1.5,-3.352 -3.351,-3.352l-31.661,0c-1.851,0 -3.351,1.501 -3.351,3.352l-0,257.857Zm6.703,-3.352l-0,-251.154c-0,0 24.957,0 24.957,0c0,0 0,89.168 0,89.168c0,1.4 0.871,2.653 2.184,3.141c1.312,0.488 2.79,0.109 3.705,-0.952c14.105,-16.344 31.903,-24.518 53.396,-24.518c13.228,-0 24.726,2.571 34.478,7.783c9.507,5.082 16.333,12.08 20.431,21.04c4.249,9.293 6.292,22.791 6.292,40.469l-0,115.023c-0,0 -24.958,0 -24.958,0c0,0 0,-115.023 0,-115.023c0,-16.918 -3.881,-29.166 -11.212,-36.873c-7.443,-7.824 -17.926,-11.859 -31.539,-11.859c-9.983,0 -19.374,2.584 -28.172,7.763c-8.922,5.252 -15.267,12.385 -19.064,21.371c-3.652,8.643 -5.541,20.563 -5.541,35.78c0,-0 0,98.841 0,98.841l-24.957,0Z"/><path d="M409.89,288.936c-0,1.851 1.501,3.351 3.351,3.351l31.661,0c1.851,0 3.351,-1.5 3.351,-3.351l0,-186.797c0,-1.851 -1.5,-3.351 -3.351,-3.351l-31.661,-0c-1.85,-0 -3.351,1.5 -3.351,3.351l-0,186.797Zm6.703,-3.352l-0,-180.093c-0,-0 24.957,-0 24.957,-0c0,-0 0,180.093 0,180.093l-24.957,0Zm-6.703,-218.096c-0,1.851 1.501,3.352 3.351,3.352l31.661,-0c1.851,-0 3.351,-1.501 3.351,-3.352l0,-36.409c0,-1.851 -1.5,-3.352 -3.351,-3.352l-31.661,0c-1.85,0 -3.351,1.501 -3.351,3.352l-0,36.409Zm6.703,-3.351l-0,-29.707c-0,0 24.957,0 24.957,0c0,0 0,29.707 0,29.707c0,-0 -24.957,-0 -24.957,-0Z"/><path d="M665.611,358.585c-0.294,-1.8 -1.975,-3.035 -3.781,-2.777c-5.55,0.793 -10.024,1.198 -13.422,1.198c-3.928,-0 -6.971,-0.526 -9.083,-1.803c-1.895,-1.146 -3.272,-2.678 -4.11,-4.617c-1.028,-2.381 -1.396,-7.751 -1.396,-16.085c-0,0 -0,-105.877 -0,-105.877c-0,0 28.485,0 28.485,0c1.851,0 3.351,-1.5 3.351,-3.351l0,-24.625c0,-1.851 -1.5,-3.352 -3.351,-3.352l-28.485,0c-0,0 -0,-61.904 -0,-61.904c-0,-1.209 -0.651,-2.324 -1.704,-2.918c-1.053,-0.595 -2.344,-0.576 -3.379,0.048l-31.485,18.997c-1.005,0.606 -1.62,1.695 -1.62,2.869l0,42.908c0,0 -19.866,0 -19.866,0c-1.851,0 -3.351,1.501 -3.351,3.352l-0,24.625c-0,1.851 1.5,3.351 3.351,3.351l19.866,0c0,0 0,104.118 0,104.118c0,19.684 1.476,32.58 4.149,38.716c2.857,6.557 7.76,11.878 14.772,15.903c6.732,3.865 16.186,5.898 28.404,5.898c7.238,-0 15.443,-0.956 24.611,-2.887c1.754,-0.369 2.907,-2.052 2.618,-3.82l-4.574,-27.967Zm-6.089,4.295l3.526,21.562c-7.399,1.405 -14.096,2.114 -20.092,2.114c-10.766,-0 -19.135,-1.603 -25.067,-5.008c-5.652,-3.245 -9.661,-7.481 -11.964,-12.767c-2.486,-5.708 -3.591,-17.73 -3.591,-36.039c0,0 0,-107.469 0,-107.469c0,-1.851 -1.5,-3.352 -3.351,-3.352l-19.866,0c-0,0 -0,-17.922 -0,-17.922c-0,0 19.866,0 19.866,0c1.851,0 3.351,-1.5 3.351,-3.351l0,-44.367c0,-0 24.782,-14.953 24.782,-14.953c-0,0.001 -0,59.32 -0,59.32c-0,1.851 1.5,3.351 3.351,3.351l28.485,0c0,0 0,17.922 0,17.922c0,0 -28.485,0 -28.485,0c-1.851,0 -3.351,1.501 -3.351,3.352l-0,109.228c-0,9.726 0.746,15.963 1.946,18.742c1.39,3.221 3.648,5.793 6.795,7.696c2.931,1.772 7.099,2.77 12.551,2.77c2.948,-0 6.653,-0.273 11.114,-0.829Z"/><path d="M689.909,320.98c0,1.851 1.501,3.351 3.352,3.351l31.66,0c1.851,0 3.352,-1.5 3.352,-3.351l-0,-102.193c-0,-14.099 1.628,-25.162 5.012,-33.171c3.239,-7.665 8.679,-13.723 16.29,-18.204c7.737,-4.554 15.993,-6.836 24.772,-6.836c11.48,0 20.404,3.177 26.681,9.776c6.389,6.716 9.367,17.51 9.367,32.253c-0,-0 -0,118.375 -0,118.375c-0,1.851 1.5,3.351 3.351,3.351l31.661,0c1.851,0 3.351,-1.5 3.351,-3.351l0,-118.375c0,-18.908 -2.354,-33.318 -6.899,-43.256c-4.697,-10.271 -12.47,-18.34 -23.367,-24.164c-10.651,-5.693 -23.191,-8.575 -37.637,-8.575c-20.637,0 -38.165,6.878 -52.581,20.638c-0.001,0.001 -0.001,-84.125 -0.001,-84.125c-0,-1.851 -1.501,-3.352 -3.352,-3.352l-31.66,0c-1.851,0 -3.352,1.501 -3.352,3.352l0,257.857Zm6.703,-3.352l0,-251.154c0,0 24.958,0 24.958,0c-0,0 -0,89.168 -0,89.168c-0,1.4 0.87,2.653 2.183,3.141c1.313,0.488 2.79,0.109 3.705,-0.952c14.105,-16.344 31.903,-24.518 53.397,-24.518c13.227,-0 24.725,2.571 34.478,7.783c9.507,5.082 16.332,12.08 20.43,21.04c4.25,9.293 6.292,22.791 6.292,40.469c0,-0 0,115.023 0,115.023c0,0 -24.957,0 -24.957,0c-0,0 -0,-115.023 -0,-115.023c-0,-16.918 -3.882,-29.166 -11.213,-36.873c-7.443,-7.824 -17.925,-11.859 -31.538,-11.859c-9.983,0 -19.375,2.584 -28.172,7.763c-8.923,5.252 -15.267,12.385 -19.064,21.371c-3.652,8.643 -5.541,20.563 -5.541,35.78l-0,98.841l-24.958,0Z"/><path d="M1021.88,191.596c-1.554,-0.193 -3.034,0.718 -3.565,2.192c-4.542,12.631 -10.612,21.88 -18.368,27.641c-7.653,5.685 -16.904,8.486 -27.727,8.486c-14.626,-0 -26.84,-5.097 -36.627,-15.324c-9.346,-9.766 -14.69,-23.615 -16.235,-41.47c0,-0 135.706,-0 135.706,-0c1.811,-0 3.294,-1.438 3.35,-3.247c0.119,-3.799 0.178,-6.648 0.178,-8.547c-0,-31.84 -8.301,-56.494 -24.644,-74.048c-16.469,-17.689 -37.679,-26.572 -63.663,-26.572c-26.809,0 -48.604,9.063 -65.421,27.098c-16.696,17.907 -25.173,43.031 -25.173,75.456c0,31.38 8.394,55.72 24.932,73.107c16.613,17.464 39.064,26.282 67.421,26.282c22.522,-0 41.005,-5.552 55.492,-16.509c14.527,-10.986 24.514,-26.403 29.885,-46.3c0.253,-0.938 0.087,-1.938 -0.455,-2.744c-0.542,-0.806 -1.406,-1.337 -2.37,-1.456l-32.716,-4.045Zm1.802,6.976l26.189,3.239c-5.143,16.55 -13.915,29.558 -26.378,38.984c-13.421,10.15 -30.585,15.152 -51.449,15.152c-26.287,-0 -47.164,-8.01 -62.564,-24.199c-15.474,-16.268 -23.086,-39.125 -23.086,-68.487c0,-30.426 7.706,-54.082 23.373,-70.885c15.547,-16.674 35.732,-24.966 60.518,-24.966c23.969,0 43.565,8.12 58.757,24.437c15.317,16.451 22.847,39.64 22.847,69.48c-0,1.265 -0.027,2.962 -0.082,5.091c0,-0 -136.049,-0 -136.049,-0c-0.922,-0 -1.803,0.38 -2.436,1.05c-0.633,0.67 -0.962,1.572 -0.91,2.493c1.227,21.466 7.421,37.857 18.338,49.264c11.086,11.584 24.904,17.393 41.47,17.393c12.394,-0 22.96,-3.298 31.724,-9.808c8.137,-6.044 14.76,-15.428 19.738,-28.238Zm-109.509,-55.051c-0.06,0.924 0.266,1.832 0.899,2.508c0.634,0.676 1.519,1.06 2.445,1.06l104.304,-0c0.941,-0 1.838,-0.396 2.473,-1.09c0.635,-0.694 0.949,-1.623 0.865,-2.561c-1.482,-16.549 -5.806,-28.92 -12.721,-37.197c-10.749,-12.995 -24.68,-19.502 -41.801,-19.502c-15.475,0 -28.477,5.201 -39.022,15.56c-10.468,10.281 -16.327,24.003 -17.442,41.222Zm7,-3.135c1.513,-13.727 6.524,-24.843 15.139,-33.306c9.271,-9.107 20.719,-13.638 34.325,-13.638c15.005,0 27.221,5.686 36.641,17.077c0.003,0.005 0.007,0.009 0.011,0.014c5.696,6.814 9.235,16.787 10.811,29.853c0,-0 -96.927,-0 -96.927,-0l-0,0Z"/><path d="M1090.24,320.98c0,1.851 1.501,3.351 3.352,3.351l31.66,0c1.851,0 3.352,-1.5 3.352,-3.351l-0,-97.796c-0,-13.002 1.701,-24.98 5.121,-35.93c2.118,-6.667 5.634,-11.901 10.609,-15.658c4.914,-3.712 10.455,-5.567 16.624,-5.567c7.174,-0 14.339,2.154 21.513,6.393c0.855,0.506 1.889,0.606 2.825,0.274c0.936,-0.332 1.676,-1.062 2.022,-1.992l10.905,-29.374c0.556,-1.498 -0.022,-3.18 -1.382,-4.019c-11.614,-7.166 -23.057,-10.701 -34.3,-10.701c-8.076,0 -15.48,2.304 -22.211,6.92c-4.635,3.178 -9.624,8.763 -14.892,16.81c-0,0.001 -0,-16.157 -0,-16.157c-0,-1.851 -1.501,-3.352 -3.352,-3.352l-28.494,0c-1.851,0 -3.352,1.501 -3.352,3.352l0,186.797Zm6.703,-3.352l0,-180.094c0,0 21.792,0 21.792,0c-0,0 -0,24.967 -0,24.967c-0,1.531 1.036,2.867 2.519,3.247c1.483,0.38 3.034,-0.293 3.77,-1.634c6.93,-12.63 13.229,-21.033 19.097,-25.056c5.582,-3.828 11.722,-5.745 18.42,-5.745c9.338,-0 18.805,2.792 28.426,8.302c0,0 -8.583,23.118 -8.583,23.118c-7.141,-3.62 -14.287,-5.407 -21.426,-5.407c-7.668,-0 -14.556,2.307 -20.664,6.921c-6.046,4.567 -10.387,10.881 -12.959,18.986c-0.002,0.004 -0.004,0.009 -0.005,0.014c-3.613,11.562 -5.429,24.207 -5.429,37.937c-0,-0 -0,94.444 -0,94.444l-24.958,0Z"/><path d="M1342.18,322.205c-1.555,-0.193 -3.035,0.718 -3.565,2.192c-4.543,12.631 -10.613,21.88 -18.369,27.641c-7.653,5.685 -16.904,8.486 -27.727,8.486c-14.626,-0 -26.839,-5.097 -36.627,-15.324c-9.346,-9.766 -14.69,-23.615 -16.235,-41.47c0.001,-0 135.707,-0 135.707,-0c1.81,-0 3.293,-1.438 3.35,-3.247c0.118,-3.799 0.177,-6.648 0.177,-8.547c0,-31.84 -8.3,-56.494 -24.644,-74.048c-16.468,-17.689 -37.679,-26.572 -63.663,-26.572c-26.809,0 -48.604,9.063 -65.42,27.098c-16.697,17.907 -25.174,43.03 -25.174,75.456c0,31.38 8.395,55.72 24.933,73.107c16.612,17.464 39.063,26.282 67.42,26.282c22.522,-0 41.005,-5.552 55.493,-16.509c14.526,-10.986 24.513,-26.403 29.884,-46.3c0.253,-0.938 0.087,-1.938 -0.455,-2.744c-0.541,-0.806 -1.406,-1.337 -2.369,-1.456l-32.716,-4.045Zm1.801,6.976l26.19,3.239c-5.143,16.55 -13.915,29.558 -26.379,38.984c-13.42,10.15 -30.585,15.152 -51.449,15.152c-26.287,-0 -47.164,-8.01 -62.563,-24.199c-15.475,-16.268 -23.087,-39.125 -23.087,-68.487c0,-30.426 7.706,-54.082 23.373,-70.885c15.548,-16.674 35.733,-24.966 60.518,-24.966c23.969,0 43.566,8.12 58.757,24.437c15.318,16.451 22.847,39.64 22.847,69.48c0,1.265 -0.027,2.962 -0.081,5.091c-0,-0 -136.049,-0 -136.049,-0c-0.922,-0 -1.804,0.38 -2.437,1.05c-0.633,0.67 -0.962,1.572 -0.909,2.493c1.226,21.465 7.421,37.857 18.338,49.264c11.085,11.584 24.903,17.393 41.469,17.393c12.394,-0 22.96,-3.298 31.724,-9.808c8.137,-6.044 14.76,-15.428 19.738,-28.238Zm-109.509,-55.051c-0.06,0.924 0.266,1.832 0.899,2.508c0.634,0.676 1.519,1.06 2.446,1.06l104.303,-0c0.941,-0 1.839,-0.396 2.474,-1.09c0.635,-0.694 0.948,-1.623 0.864,-2.561c-1.482,-16.549 -5.806,-28.92 -12.721,-37.197c-10.749,-12.995 -24.68,-19.502 -41.801,-19.502c-15.475,-0 -28.477,5.201 -39.022,15.559c-10.468,10.282 -16.327,24.004 -17.442,41.223Zm7,-3.135c1.513,-13.727 6.524,-24.843 15.139,-33.306c9.272,-9.107 20.719,-13.638 34.325,-13.638c15.005,-0 27.222,5.686 36.641,17.077c0.004,0.005 0.007,0.009 0.011,0.014c5.696,6.814 9.235,16.787 10.812,29.853c-0,-0 -96.928,-0 -96.928,-0l0,0Z"/></g></g><path d="M137.874,393.259l1477.05,-0" style="fill:none;stroke:#000;stroke-width:27.08px;"/></svg>