<?xml version="1.0" encoding="UTF-8" standalone="no"?><!DOCTYPE svg PUBLIC "-//W3C//DTD SVG 1.1//EN" "http://www.w3.org/Graphics/SVG/1.1/DTD/svg11.dtd"><svg width="100%" height="100%" viewBox="0 0 2481 3508" version="1.1" xmlns="http://www.w3.org/2000/svg" xmlns:xlink="http://www.w3.org/1999/xlink" xml:space="preserve" xmlns:serif="http://www.serif.com/" style="fill-rule:evenodd;clip-rule:evenodd;stroke-linecap:round;stroke-linejoin:round;stroke-miterlimit:1.5;"><rect x="45.023" y="40.659" width="288.388" height="288.388" style="fill:none;stroke:#000;stroke-width:27.08px;"/><rect x="148.296" y="117.928" width="288.388" height="288.388" style="fill:none;stroke:#000;stroke-width:27.08px;"/><rect x="377.194" y="40.659" width="288.388" height="288.388" style="fill:none;stroke:#000;stroke-width:27.08px;"/><rect x="497.787" y="214.456" width="288.388" height="288.388" style="fill:none;stroke:#000;stroke-width:27.08px;"/><rect x="84.846" y="238.977" width="288.388" height="288.388" style="fill:none;stroke:#000;stroke-width:27.08px;"/><rect x="286.451" y="361.918" width="288.388" height="288.388" style="fill:none;stroke:#000;stroke-width:27.08px;"/><rect x="477.497" y="139.521" width="288.388" height="288.388" style="fill:none;stroke:#000;stroke-width:27.08px;"/><rect x="143.053" y="440.291" width="288.388" height="288.388" style="fill:none;stroke:#000;stroke-width:27.08px;"/><rect x="494.739" y="548.491" width="288.388" height="288.388" style="fill:none;stroke:#000;stroke-width:27.08px;"/><path d="M102.486,117.928c0,0 -240.101,1015.43 116.126,483.048" style="fill:none;stroke:#000;stroke-width:27.08px;"/><path d="M521.388,76.214c0,-0 339.254,-161.635 209.21,226.549" style="fill:none;stroke:#000;stroke-width:27.08px;"/><path d="M665.583,650.306c-0,0 -788.512,-245.731 -379.132,-477.503" style="fill:none;stroke:#000;stroke-width:27.08px;"/><path d="M558.433,254.95c-0,0 30.88,73.771 -189.003,337.019" style="fill:none;stroke:#000;stroke-width:27.08px;"/><path d="M229.04,671.397c504.382,-21.091 510.425,-157.105 401.387,-407.559" style="fill:none;stroke:#000;stroke-width:27.08px;"/><path d="M330.865,768.078c39.162,-3.478 78.703,-6.175 114.286,-24.584c106.615,-55.16 172.165,-221.506 192.742,-333.662" style="fill:none;stroke:#000;stroke-width:27.08px;"/></svg>