<?xml version="1.0" encoding="UTF-8" standalone="no"?><!DOCTYPE svg PUBLIC "-//W3C//DTD SVG 1.1//EN" "http://www.w3.org/Graphics/SVG/1.1/DTD/svg11.dtd"><svg width="100%" height="100%" viewBox="0 0 1013 1375" version="1.1" xmlns="http://www.w3.org/2000/svg" xmlns:xlink="http://www.w3.org/1999/xlink" xml:space="preserve" xmlns:serif="http://www.serif.com/" style="fill-rule:evenodd;clip-rule:evenodd;stroke-linejoin:round;stroke-miterlimit:2;"><path d="M303.555,201.33c-28.708,5.677 -53.321,5.527 -78.536,1.407l-0.637,16.619c3.595,0.62 5.416,0.923 9.156,1.359l-3.398,59.468c-2.847,-0.312 -4.467,-0.59 -7.6,-1.107l-0.479,18.077c11.221,1.645 19.5,1.675 31.858,1.231c0.786,-5.741 1.278,-9.225 2.552,-17.376c-3.223,0.098 -4.946,0.166 -8.16,0.166c0.923,-7.583 1.876,-15.05 2.641,-21.065c13.542,-0.055 26.161,-1.184 39.377,-3.171c5.805,-5.13 10.99,-9.853 16.564,-15.235c3.048,-7.818 8.216,-21.821 9.648,-30.084c-4.741,-3.967 -7.754,-6.258 -12.986,-10.289" style="fill:#fff;fill-rule:nonzero;stroke:#000;stroke-width:1.67px;"/></svg>