<?xml version="1.0" encoding="UTF-8" standalone="no"?><!DOCTYPE svg PUBLIC "-//W3C//DTD SVG 1.1//EN" "http://www.w3.org/Graphics/SVG/1.1/DTD/svg11.dtd"><svg width="100%" height="100%" viewBox="0 0 1013 1375" version="1.1" xmlns="http://www.w3.org/2000/svg" xmlns:xlink="http://www.w3.org/1999/xlink" xml:space="preserve" xmlns:serif="http://www.serif.com/" style="fill-rule:evenodd;clip-rule:evenodd;stroke-linejoin:round;stroke-miterlimit:2;"><g><g><path d="M378.375,64.956l-0,-0l-0.003,-0.003l0,0c-86.42,-86.603 -226.812,-86.605 -313.418,-0.001c-86.604,86.423 -86.606,226.814 -0.002,313.419c86.423,86.605 226.814,86.607 313.419,0.003c86.605,-86.424 86.607,-226.815 0.004,-313.418Zm-2.227,2.222l-2.226,2.221c-83.969,-84.146 -220.374,-84.143 -304.521,0.003c-0,0.001 -0.001,0.001 -0.002,0.002c-84.146,83.969 -84.144,220.374 0.002,304.52c0.001,0.001 0.002,0.002 0.003,0.003c83.969,84.146 220.374,84.143 304.52,-0.003c0.001,-0 0.002,-0.001 0.002,-0.002c84.146,-83.969 84.144,-220.374 -0.002,-304.52l2.224,-2.224Z"/><path d="M60.353,97.057l-3.419,1.123c-25.92,34.499 -41.252,77.212 -41.252,123.393c0,0.002 0,0.004 0,0.005c0.183,113.713 92.36,205.886 205.891,205.886c45.815,-0 87.98,-14.968 122.113,-40.157c1.06,-0.782 1.52,-2.143 1.153,-3.408c-39.839,-137.263 -147.585,-245.735 -284.486,-286.842Zm0.301,6.666c-24.332,33.128 -38.68,73.865 -38.681,117.848c0.178,110.24 89.536,199.602 199.6,199.602c43.624,0 83.833,-13.998 116.605,-37.635c-39.529,-133.521 -144.376,-239.07 -277.524,-279.815Z"/><path d="M111.393,51.54l0.934,3.004c13.004,-4.042 26.711,-6.149 40.945,-6.149c46.051,-0 86.472,22.683 111.782,56.956c22.322,30.327 33.413,67.572 43.796,112.438c10.507,45.406 20.233,98.552 39.674,160.204c0.316,1.002 1.111,1.78 2.119,2.074c1.008,0.294 2.096,0.066 2.901,-0.609c45.084,-37.783 73.92,-94.549 73.92,-157.885c-0,-113.714 -92.177,-205.891 -205.891,-205.891c-0.005,0 -0.009,0 -0.014,0c-41.248,0.183 -79.575,12.232 -111.88,33.221l1.714,2.637Zm19.703,-7.76c7.235,-1.109 14.635,-1.676 22.176,-1.676c48.132,0 90.39,23.689 116.844,59.512c0.001,0.002 0.002,0.003 0.003,0.004c22.792,30.965 34.258,68.939 44.86,114.751c10.217,44.15 19.682,95.641 38.122,155.178c41.638,-36.597 68.072,-90.275 68.072,-149.976c-0,-110.237 -89.356,-199.596 -199.593,-199.6c-32.585,0.145 -63.291,7.924 -90.484,21.807Z"/><path d="M568.375,371.745c3.297,-5.04 6.222,-12.038 6.649,-19.87l-3.14,-0.171l3.145,0l0,-1.797c0,-10.376 -3.923,-19.965 -11.166,-27.208c-0.01,-0.01 -0.02,-0.02 -0.03,-0.03c-7.407,-7.211 -17.342,-11.316 -28.257,-11.316c-22.629,-0 -40.351,17.393 -40.351,39.632c0,18.158 11.892,33.401 29.659,38.089c2.828,0.754 10.358,1.543 17.702,1.543l51.765,0c2.646,0 4.763,-2.116 4.763,-4.763c0,0 0,-9.166 0,-9.166c0,-2.551 -2.212,-4.943 -4.763,-4.943l-25.976,-0Zm0.363,-20.136l0,-1.702c0,-8.67 -3.261,-16.689 -9.318,-22.754c-6.251,-6.074 -14.639,-9.509 -23.844,-9.509c-19.07,-0 -34.06,14.6 -34.06,33.341c-0,15.272 10.034,28.067 24.977,32.008c0.003,0 0.006,0.001 0.008,0.002c2.567,0.684 9.413,1.332 16.085,1.332l50.237,-0l0,-6.291l-31.005,-0c0.877,-0 1.67,-0.359 2.24,-0.938l0.906,-2.208l-0.339,0.012c-1.493,0.041 -7.324,0.058 -5.016,-2.251l0.492,-0.492c3.753,-3.923 8.127,-11.589 8.637,-20.55Zm-7.818,19.947c0.773,-0.373 1.529,-0.207 2.196,0.189l1,-0c-0.181,-0.124 -0.377,-0.229 -0.586,-0.313c-0.862,-0.346 -1.814,-0.288 -2.61,0.124Zm-46.995,-19.865c0.304,11.022 10.126,19.874 21.831,19.874c5.917,0 11.387,-2.129 15.124,-6.177c0.014,-0.016 0.028,-0.03 0.042,-0.045c3.761,-3.918 5.774,-9.099 5.774,-14.897c-0,-11.215 -9.305,-19.502 -21.299,-19.502c-11.84,0 -21.184,8.546 -21.472,19.688l-0.007,0.533l0.007,0.526Zm46.328,20.323l0.021,-0.018l-0.015,0.012l-0.006,0.006Zm-52.591,-22.231l-0.026,0.689l-0.009,0.693c0,14.617 12.7,26.691 28.129,26.691c7.74,0 14.848,-2.9 19.739,-8.194c4.84,-5.053 7.492,-11.726 7.492,-19.216c-0,-14.668 -11.904,-25.793 -27.59,-25.793c-15.163,0 -27.008,10.953 -27.735,25.13Z"/><path d="M534.29,229.213l-0.511,-0.001c-1.022,0 -2.25,0.187 -3.68,0.391c-0.024,0.004 -0.048,0.007 -0.072,0.011c-2.31,0.385 -4.618,0.782 -6.928,1.55c-17.176,5.474 -28.054,19.961 -28.054,37.141c0,1.734 0.187,3.467 0.379,5.201c0.002,0.014 0.003,0.028 0.005,0.042c2.732,21.859 22.596,36.748 45.039,33.825c20.314,-2.543 34.381,-19.143 34.381,-39.068c0,-1.53 -0.183,-3.253 -0.375,-5.166c-0.002,-0.028 -0.006,-0.056 -0.009,-0.084c-1.363,-10.703 -5.867,-19.835 -14.429,-26.841c-0.08,-0.065 -0.162,-0.126 -0.247,-0.183c-1.116,-0.744 -2.247,-1.067 -3.363,-1.067c-1.047,-0 -2.827,0.728 -3.875,2.299c-0.764,1.146 -2.857,5.114 -3.842,7.451c0.004,-0.01 -0.668,1.335 -0.668,1.335c-0.696,1.393 -0.871,2.148 -0.871,2.844c-0,1.488 0.451,2.983 2.243,4.038c4.047,3.548 6.161,7.975 6.771,12.555c0.005,0.034 0.01,0.067 0.015,0.101c0.15,0.896 0.137,1.792 0.137,2.539c0,7.574 -4.314,15.211 -10.712,18.45c-0.566,-1.896 -1.15,-4.648 -1.15,-8.026c-0,-0.678 -0.017,-1.221 0.118,-1.899c0.022,-0.11 0.038,-0.221 0.048,-0.332c0.172,-1.885 0.339,-3.769 0.682,-5.654c0.007,-0.039 0.013,-0.078 0.019,-0.118c0.558,-3.909 1.11,-8.006 1.11,-12.846c-0,-3.009 -0.188,-5.83 -0.564,-8.838c-0.009,-0.07 -0.02,-0.139 -0.033,-0.208c-2.332,-12.051 -5.928,-16.877 -5.928,-16.877c-0.011,-0.017 -0.024,-0.033 -0.036,-0.05c-1.754,-2.339 -3.123,-2.504 -5.6,-2.515Zm11.931,59.13c0.221,0.582 0.385,0.948 0.428,1.075l0.107,0.664l0.018,0.038c0.243,0.285 0.396,0.473 0.396,0.473c-0,-0.853 -0.346,-1.663 -0.949,-2.25Zm-0.388,4.824c0.821,-0.578 1.337,-1.529 1.337,-2.574c-0,-0 -0.147,1.668 -1.337,2.574Zm-10.005,-0.462l0.018,-0.135l-0.003,-0.141c-0.015,-0.329 -0.081,-0.654 -0.197,-0.963c-0,-0 -1.479,-3.963 -2.153,-8.931c-0.173,-1.719 -0.343,-3.404 -0.343,-5.423c0,-2.82 0.358,-5.639 0.534,-8.812l0.005,-0.174l0,-0l-0,-0.001l0,-0.016c0.36,-3.475 0.539,-7.121 0.539,-10.408c0,-2.121 -0.188,-3.858 -0.381,-5.402c-0.386,-3.464 -0.971,-6.158 -1.549,-8.084l0.048,0.321c-0.353,-0.87 -1.812,-3.917 -4.475,-2.586l-0.116,0.058c-11.606,3.543 -20.308,14.846 -20.308,26.297c0,1.25 0.012,2.292 0.217,3.538c1.837,12.557 12.208,22.641 24.364,23.857l3.369,-3.049l0.01,-0.001l-3.056,3.065l0.341,0c2.516,0 3.044,-2.408 3.136,-3.01Zm-6.913,-44.463c0.296,-0.101 0.595,-0.196 0.896,-0.284l1.982,-2.647l0.06,-0.016l-1.51,2.453c-0,-0 0.293,-0.147 0.341,-0.171c1.389,-0.695 1.682,-1.865 1.737,-2.455l0.01,-0.003c0,1.561 -1.144,2.885 -2.689,3.112c-0.279,0.041 -0.557,0.044 -0.827,0.011Zm-1.921,0.762c0.229,1.169 0.436,2.507 0.603,4.011c0.002,0.015 0.004,0.029 0.005,0.043c0.166,1.327 0.336,2.819 0.336,4.643c-0,3.131 -0.174,6.61 -0.522,9.915l0.047,0.003c-0.035,0.109 -0.056,0.23 -0.062,0.364c-0.183,3.285 -0.542,6.208 -0.542,9.129c0,2.275 0.186,4.17 0.375,6.065c0.004,0.034 0.008,0.069 0.012,0.103c0.252,1.89 0.608,3.657 0.974,5.178c-7.375,-2.558 -13.153,-9.406 -14.335,-17.549c-0.003,-0.022 -0.006,-0.044 -0.01,-0.065c-0.149,-0.896 -0.137,-1.643 -0.137,-2.539c0,-7.996 5.572,-15.825 13.256,-19.301Zm6.491,-13.494c-0.704,0.035 -1.523,0.181 -2.467,0.317c-1.982,0.33 -3.967,0.651 -5.95,1.312c-0.014,0.004 -0.027,0.009 -0.041,0.013c-14.447,4.597 -23.691,16.707 -23.691,31.153c0,1.494 0.172,2.988 0.34,4.498c2.316,18.381 19.106,30.794 37.987,28.331c0.006,-0.001 0.011,-0.001 0.017,-0.002c17.067,-2.134 28.879,-16.087 28.879,-32.827c-0,-1.333 -0.173,-2.83 -0.343,-4.518c-1.107,-8.603 -4.568,-16.03 -11.138,-21.832c-0.828,1.495 -1.986,3.796 -2.601,5.272c-0.028,0.067 -0.058,0.133 -0.09,0.197l-0.524,1.048c5.098,4.592 7.764,10.279 8.547,16.112c0.205,1.251 0.217,2.499 0.217,3.542c0,11.13 -7.322,22.182 -17.385,25.381c-0.343,0.145 -0.747,0.231 -1.222,0.231c-0.024,0 -0.171,0 -0.171,0c0,0 3.141,-3.145 3.141,-3.145c-0,-0 -5.374,2.22 -5.374,2.22c0,-0 -0.17,-0.171 -0.17,-0.171l5.277,-2.193l-0.031,-0.017l-6.011,0.976c-0.195,-0.584 -2.498,-5.459 -2.498,-12.858c-0,-1.061 0.015,-1.921 0.206,-2.953c0.182,-1.998 0.372,-3.995 0.732,-5.993c0.517,-3.623 1.039,-7.42 1.039,-11.903c-0,-2.709 -0.168,-5.25 -0.506,-7.972c-1.837,-9.412 -4.424,-13.645 -4.799,-14.221l-1.076,-0.005l-0.294,0.007Z"/><path d="M568.325,206.565c3.316,-5.068 6.27,-12.034 6.7,-20.052l-3.141,-0.169l3.145,0l0,-1.797c0,-10.375 -3.923,-19.965 -11.166,-27.208c-0.01,-0.01 -0.02,-0.02 -0.03,-0.029c-7.408,-7.213 -17.34,-11.137 -28.257,-11.137c-22.629,-0 -40.351,17.393 -40.351,39.632c0,18.158 11.892,33.401 29.659,38.089c2.828,0.754 10.358,1.544 17.702,1.544l51.765,-0c2.646,-0 4.763,-2.117 4.763,-4.764c0,0 0,-9.166 0,-9.166c0,-2.551 -2.212,-4.943 -4.763,-4.943l-26.026,-0Zm0.413,-20.314l0,-1.704c0,-8.67 -3.261,-16.689 -9.318,-22.754c-6.25,-6.072 -14.641,-9.329 -23.844,-9.329c-19.07,-0 -34.06,14.6 -34.06,33.341c-0,15.272 10.034,28.067 24.977,32.008c0.003,0.001 0.006,0.001 0.008,0.002c2.567,0.684 9.413,1.332 16.085,1.332l50.237,-0l0,-6.291l-31.005,-0c0.877,-0 1.67,-0.359 2.24,-0.938l0.906,-2.208l-0.339,0.012c-1.493,0.041 -7.324,0.058 -5.016,-2.251l0.469,-0.468c3.76,-4.104 8.15,-11.615 8.66,-20.752Zm-7.821,20.126c0.775,-0.374 1.531,-0.208 2.199,0.188l1.002,-0c-0.191,-0.129 -0.397,-0.238 -0.618,-0.324c-0.856,-0.334 -1.797,-0.271 -2.583,0.136Zm-46.992,-19.866c0.304,11.022 10.143,19.71 21.852,19.874c5.909,-0.005 11.37,-2.134 15.103,-6.177c0.014,-0.015 0.028,-0.03 0.042,-0.045c3.761,-3.918 5.774,-9.256 5.774,-14.897c-0,-11.221 -9.299,-19.681 -21.299,-19.681c-11.846,-0 -21.184,8.713 -21.472,19.867l-0.007,0.533l0.007,0.526Zm46.261,20.386l0.042,-0.04l-0.015,0.013l-0.027,0.027Zm-52.524,-22.294l-0.026,0.689l-0.009,0.693c0,14.606 12.67,26.488 28.088,26.691c0.014,0 0.027,0 0.041,0c7.74,0 14.849,-2.9 19.739,-8.194c4.84,-5.054 7.492,-11.928 7.492,-19.216c-0,-14.662 -11.911,-25.972 -27.59,-25.972c-15.157,-0 -27.008,11.127 -27.735,25.309Z"/><path d="M555.692,143.116l-0.232,-0.201c1.185,1.185 2.463,1.561 3.688,1.308c1.607,-0.051 2.834,-1.045 3.277,-1.488l-2.224,-2.224l2.325,2.118c7.918,-8.691 12.323,-17.976 12.323,-30.337l0,-0.355l0,-0.004l0,-0.001l0,-0.028c-0.202,-22.009 -12.621,-31.516 -24.534,-31.516c-16.687,0 -21.43,15.628 -22.478,20.418c-0.356,1.432 -0.541,2.703 -0.903,4.333c-0.002,0.011 -0.005,0.023 -0.007,0.034c-0.695,3.299 -1.201,6.774 -2.243,9.899c-0.025,0.076 -0.048,0.154 -0.068,0.232c-0.222,0.89 -0.85,2.858 -2,4.603c-0.831,1.259 -1.914,2.54 -3.575,2.54c-1.918,0 -3.332,-1.129 -4.319,-2.666c-1.268,-1.974 -1.882,-4.593 -1.882,-7.13c-0,-4.695 0.782,-8.457 4.49,-13.445c0.74,-0.862 1.441,-2.331 1.441,-3.809c-0,-1.194 -0.324,-2.409 -1.414,-3.605c-1.217,-1.754 -3.768,-4.677 -5.618,-6.528c-1.346,-1.346 -2.317,-1.64 -3.663,-1.64c-1.651,-0 -3.428,1.407 -3.841,1.82c-0.089,0.088 -0.172,0.182 -0.25,0.28c-6.39,8.134 -9.119,16.068 -9.119,27.107c-0,16.666 11.05,29.028 25.073,29.028c11.158,0 19.582,-8.878 23.031,-25.513l1.815,-9.259c0.736,-4.169 2.519,-6.873 5.584,-6.75c1.046,0.042 2.047,0.655 2.926,1.601c1.846,1.986 3.041,5.329 3.041,9.635c0,6.372 -2.576,12.093 -6.86,16.88c-0.881,0.917 -1.587,2.298 -1.587,3.61c-0,0.992 0.468,2.491 1.46,3.483c0.542,0.542 5.309,6.604 6.343,7.57Zm-47.526,-52.5c-4.922,6.621 -7.009,13.219 -7.009,22.215c-0,12.814 8,22.737 18.782,22.737c8.615,0 14.203,-7.644 16.868,-20.485c0,0 1.789,-9.122 1.786,-9.105c1.426,-8.056 6.1,-12.164 12.028,-11.927c2.549,0.102 5.141,1.3 7.283,3.604c2.684,2.889 4.723,7.655 4.723,13.918c0,7.702 -2.937,14.674 -7.986,20.531c1.099,1.356 2.97,3.723 4.207,5.192c6.214,-7.17 9.711,-14.875 9.711,-25.004l0.02,-0l-0.001,-0.01l-0.013,-0.15c-0.004,-0.039 -0.006,-0.08 -0.006,-0.122l0,-0.029l-0,-0.02c-0.158,-17.18 -8.944,-25.282 -18.244,-25.282c-12.392,0 -15.573,11.978 -16.338,15.497c-0.007,0.032 -0.014,0.063 -0.022,0.095c-0.351,1.404 -0.526,2.634 -0.88,4.232c-0.731,3.483 -1.299,7.141 -2.383,10.434c-0.414,1.6 -1.665,5.253 -3.966,7.961c-1.905,2.241 -4.469,3.84 -7.685,3.84c-7.797,0 -12.492,-8.06 -12.492,-16.087c-0,-5.995 0.983,-10.804 5.712,-17.169c-0.843,-1.252 -2.584,-3.275 -4.095,-4.866Zm49.298,47.57c-0.036,0.016 -0.072,0.033 -0.108,0.051l0.108,-0.051Zm-3.607,-7.023c-0.019,-0.023 -0.039,-0.045 -0.06,-0.066l0.06,0.066Z"/><path d="M502.505,53.787c-2.647,0 -4.764,2.117 -4.764,4.763l0,9.347c0,2.646 2.117,4.763 4.764,4.763l65.964,-0c2.646,-0 4.763,-2.117 4.763,-4.763c-0,-0 -0,-9.347 -0,-9.347c-0,-2.646 -2.117,-4.763 -4.763,-4.763c-0,0 -65.964,0 -65.964,0Zm1.527,12.582l62.909,-0l-0,-6.291l-62.909,-0l0,6.291Z"/><path d="M480.314,63.485c0.143,2.684 2.472,4.861 5.295,4.861c2.915,-0 5.302,-2.32 5.302,-5.123c0,-2.933 -2.369,-5.302 -5.302,-5.302c-2.841,0 -5.153,2.223 -5.295,5.029l-0.007,0.273l0.007,0.262Zm-6.283,-0.859l-0.011,0.298l-0.004,0.299c-0,6.185 5.161,11.414 11.593,11.414c6.432,-0 11.593,-5.229 11.593,-11.414c0,-6.413 -5.18,-11.593 -11.593,-11.593c-6.212,0 -11.268,4.861 -11.578,10.996Z"/></g></g></svg>