<?xml version="1.0" encoding="UTF-8" standalone="no"?><!DOCTYPE svg PUBLIC "-//W3C//DTD SVG 1.1//EN" "http://www.w3.org/Graphics/SVG/1.1/DTD/svg11.dtd"><svg width="100%" height="100%" viewBox="0 0 1013 1375" version="1.1" xmlns="http://www.w3.org/2000/svg" xmlns:xlink="http://www.w3.org/1999/xlink" xml:space="preserve" xmlns:serif="http://www.serif.com/" style="fill-rule:evenodd;clip-rule:evenodd;stroke-linejoin:round;stroke-miterlimit:2;"><path d="M302.632,149.164c-0.026,0.047 -0.103,0.038 -0.112,-0.009c-0.111,-0.397 -0.453,-1.487 -0.889,-1.996c-0.342,0.248 -1.385,0.962 -3.188,1.744c-4.557,3.227 -15.868,7.472 -24.429,7.472c-7.254,0.008 -10.452,-3.052 -10.802,-7.378c-0.53,0.693 -1.018,1.415 -1.526,2.06c-0.898,-4.27 4.232,-10.229 8.207,-6.403c-0.675,0.24 -1.351,0.453 -1.988,0.684c4.642,3.856 24.707,5.352 32.611,-0.923c0.111,-0.355 0.166,-0.778 0.102,-1.381c1.894,0.825 3.151,3.728 2.014,6.13m-13.867,13.071c0,0 -5.497,-0.196 -9.908,1.821c-8.122,-0.158 -9.853,-5.651 -9.853,-5.651c6.001,3.719 15.888,2.847 24.386,-0.756c0,-0 -1.389,2.864 -4.625,4.586m-66.337,-37.12c-0.423,-2.902 -2.816,-11.212 -7.501,-11.212c-1.343,0 -2.877,0.676 -4.595,2.355c-0.637,-2.671 0.35,-5.202 3.022,-6.471c3.005,-1.441 6.689,0.547 8.031,3.227c2.061,3.975 2.108,7.985 1.043,12.101m86.803,3.287c-3.706,-8.694 -5.479,-12.691 -3.107,-24.651c-1.569,0.278 -3.189,0.53 -4.835,0.74c0.697,1.739 0.962,3.753 0.795,5.343c0.013,0.132 -0.166,0.196 -0.239,0.085c-0.765,-1.09 -2.928,-4.612 -4.223,-4.992l-0.556,0.055c-0.577,0.291 -1.5,2.351 -1.765,2.941c5.065,2.595 6.711,12.734 2.59,18.466c6.532,6.155 -2.932,13.773 -9.652,14.354c-5.36,0.427 -12.216,0.197 -16.277,-3.8c-1.124,-1.107 -1.424,-2.92 -0.782,-4.326c-1.479,-0.026 -2.958,-0.043 -4.467,0.013c2.235,-1.565 5.039,-2.154 7.728,-2.304c0.628,-0.081 1.265,-0.047 1.885,0.128c-1.184,0.697 -2.235,1.535 -2.697,2.415c-1.073,2.099 1.697,3.086 3.351,3.809c6.574,2.419 16.055,2.304 20.031,-3.578c2.214,-3.274 -1.467,-6.228 -4.463,-7.126c-4.903,-1.474 -10.203,-1.342 -14.948,0.868c2.184,-2.235 5.206,-3.458 8.374,-3.791c-0.821,-2.625 -0.894,-5.463 -0.385,-7.968c-0.889,-2.402 -0.214,-5.027 -0.03,-5.895c0.158,-0.684 0.436,-1.312 0.804,-1.949c0.38,0.962 1.12,2.791 1.996,3.454c0.222,0.132 0.462,0.094 0.705,-0.286c0.479,-1.441 0.962,-3.288 1.847,-4.946c-6.617,0.389 -13.337,0.389 -19.513,0.111c4.531,4.437 7.647,12.063 11.297,1.667c2.467,3.984 -0.414,10.887 -5.954,9.567c-0.064,3.629 -1.09,7.501 -3.198,10.092c-3.864,-2.809 -8.698,-4.001 -13.55,-3.189c-0.526,-2.193 -0.564,-4.873 -0.359,-7.451c-0.786,0.372 -1.406,0.813 -1.787,1.249c0,-3.792 2.792,-8.956 6.399,-11.166c-4.39,-2.513 -9.134,-0.658 -12.135,4.583c-0.334,0.667 -1.342,0.269 -1.137,-0.44c0.859,-2.783 2.3,-4.976 4.001,-6.455c-4.159,-0.654 -7.275,-1.458 -8.81,-2.3c-3.223,-3.458 -6.284,-8.053 -8.622,-12.323c-0.239,-0.026 -0.47,-0.064 -0.714,-0.099c-12.302,8.939 -0.961,15.359 -1.94,18.219c-2.142,6.245 -4.271,17.44 -3.612,23.227c0.064,0.565 -0.453,1.013 -1.009,0.868c-1.295,-0.342 -3.364,-1.064 -4.685,-2.394c0,0 0.137,-0.786 0.286,-1.748c0.24,-12.819 -3.252,-18.265 -5.415,-20.381c-1.676,-1.624 -3.664,-2.411 -5.762,-2.283c-13.307,0.868 -9.584,35.099 3.432,35.188c3.492,0.03 5.275,-1.504 6.313,-2.282c0.979,-0.74 2.45,-0.257 2.236,1.462c-2.479,19.483 3.467,37.59 21.719,44.348c4.039,1.535 8.365,2.402 12.755,2.817c-0.414,-2.069 0.047,-3.753 0.047,-3.753c0,-0 3.681,3.608 8.041,5.373c6.168,2.492 13.443,2.381 19.496,-0.363c2.56,-1.154 3.753,-5.241 3.753,-5.241c1.09,1.09 1.513,2.625 1.624,4.078c5.001,2.411 10.969,-0.513 13.811,-5.232c2.36,-3.915 2.762,-8.635 1.082,-12.785c-1.796,-4.416 -4.677,-5.352 -4.677,-5.352c0.941,-0.376 1.885,-0.628 2.77,-0.782c3.856,-10.934 6.621,-22.989 2.137,-33.889m1.646,-21.719c-2.073,8.477 -0.111,13.068 2.035,18.385c1.573,-5.441 1.791,-15.324 -2.035,-18.385m-88.051,55.3c0.825,24.173 21.437,40.689 45.956,31.482c-1.313,-0.509 -2.595,-1.09 -3.852,-1.774c-6.185,-0.222 -12.422,-1.192 -18.329,-3.419c-11.832,-4.245 -20.603,-14.29 -23.775,-26.289m220.07,-21.685c-2.406,-27.31 -10.032,-55.115 -24.497,-78.574c-2.052,0.308 -4.843,0.055 -5.519,-0.47c1.813,-1.518 4.792,-7.117 5.596,-9.225c1.073,-2.8 2.077,-5.693 2.385,-8.493c-0.445,-6.074 -1.748,-12.85 -4.159,-18.441c-0.787,-1.709 -1.56,-2.073 -3.005,-3.107c-0.919,-0.654 -1.979,-1.304 -3.035,-1.8c-2.659,-0.38 -5.442,0.496 -8.096,1.338c1.128,-1.505 2.33,-2.992 3.736,-4.287c-1.184,-0.748 -2.83,-1.509 -4.3,-1.766c-1.967,0.518 -3.993,1.33 -5.903,1.86c0.564,-1.112 1.051,-2.249 1.56,-3.386c-2.377,-2.026 -4.031,-2.671 -6.792,-1.551c-5.686,2.688 -11.426,7.04 -13.145,9.352c-0.149,0.261 -0.213,1.001 -0.196,1.821c1.342,0.659 2.774,1.343 4.373,1.86c3.727,-2.505 7.903,-3.608 12.268,-4.446c-2.283,1.535 -4.476,3.253 -6.28,5.266c1.231,1.099 2.043,2.424 2.552,3.865c2.458,-2.92 6.784,-4.232 10.409,-4.86c-1.941,1.273 -3.856,2.744 -5.352,4.436c-2.266,3.288 -2.864,7.105 -2.753,11.016c0.064,2.578 0.607,4.245 1.347,6.083c1.962,1.107 7.018,2.385 10.066,1.838c1.009,-1.129 2.608,-3.364 2.633,-4.869c-2.611,-1.24 -5.052,0.295 -7.335,1.513c0.248,-0.97 0.543,-2.077 0.941,-3.142c0.389,-2.457 -0,-5.185 -0.941,-7.595c0.637,0.294 1.257,0.636 1.855,1.013c1.193,-0.415 2.415,-0.924 3.505,-1.3c1.552,-1.184 3.762,-2.56 5.664,-3.8c-0.795,1.812 -1.932,4.262 -2.577,6.091c0.35,0.765 0.795,1.68 1.239,2.569c2.125,-0.491 4.715,0.137 6.643,0.979c-1.552,0.676 -3.531,1.377 -4.382,2.744c0.603,3.044 -2.658,6.511 -4.509,8.554c-0.423,0.44 -0.936,0.752 -1.505,0.902c-2.671,0.718 -5.168,0.243 -7.775,-0.24c-1.402,-0.26 -2.826,-0.525 -4.168,-1.004c0.62,2.141 0.787,4.415 0.453,6.6c-1.423,-2.552 -2.714,-4.903 -4.253,-6.917c-4.757,-6.228 -13.076,-7.386 -20.278,-5.454c0.444,-0.543 0.936,-1.043 1.47,-1.487c-2.3,-0.535 -4.475,-2.189 -6.091,-3.706c1.517,0.491 4.928,1.376 6.69,0.581c-0.821,-1.06 -1.432,-2.372 -1.71,-3.963c1.556,2.151 3.872,3.724 6.424,3.882c2.377,0.111 3.775,0.137 5.844,-0.795c3.094,-1.377 4.167,-5.01 3.039,-7.904c-2.449,-0.205 -4.766,-0.953 -6.976,-1.868c-0.842,0.363 -1.599,1.146 -2.129,1.894c0.889,1.222 2.616,2.081 4.022,2.629c-2.329,-0.086 -4.731,-0.419 -6.441,-2.377c0.406,-1.359 0.628,-2.368 1.376,-3.539c-0.996,-0.454 -1.97,-0.898 -2.928,-1.296c-0.205,-0.055 -0.342,-0.094 -0.466,-0.111c-3.638,1.496 -13.251,9.541 -14.807,12.358c0.5,5.454 7.536,14.384 11.101,18.534c2.193,2.706 3.522,3.685 6.677,4.724c5.527,1.983 11.639,2.594 16.82,6.117c5.737,3.902 6.463,11.49 6.895,17.782c0.915,13.883 0.064,22.907 5.493,31.926c2.402,4.189 5.082,7.912 8.622,11.435c-4.241,-1.12 -7.994,-3.698 -11.063,-6.878c-6.407,-2.321 -13.238,-3.946 -20.15,-4.582c-11.434,19.397 -14.816,44.797 2.8,59.894c20.372,-5.51 39.68,-16.055 54.073,-31.234c4.646,-4.903 4.89,-6.822 4.954,-6.822l-0.009,-0.167Zm-70.931,-118.742c0.166,-1.137 0.517,-2.283 1.201,-3.202c1.312,-1.765 3.872,-3.851 6.813,-5.83c-0.055,0.017 -0.111,0.03 -0.158,0.047c-4.595,1.821 -12.785,0.526 -12.776,7.275c-0.009,1.043 -0,2.15 0.047,3.27c1.645,-0.979 3.077,-1.748 4.873,-1.56m-234.284,292.113c-2.06,-2.872 -3.483,-4.629 -2.987,-9.934c-5.408,2.706 -3.057,10.687 2.987,9.934m-10.297,3.997c-2.338,-2.24 -3.595,-4.847 -4.078,-8.036c-4.048,2.535 -0.359,9.866 4.078,8.036m-10.575,3.531c-1.441,-1.612 -2.035,-3.911 -2.078,-6.027c-3.419,1.765 -1.722,6.886 2.078,6.027m34.32,0.756c0.667,2.099 1.505,4.113 2.052,6.194c-0.646,2.394 -3.253,5.527 -6.155,5.408c-2.997,-0.761 -7.801,-6.964 -12.644,-12.324c0.748,4.253 2.663,10.575 5.963,14.773c-0.864,0.385 -1.74,0.684 -2.617,0.756c-0.508,0.009 -0.658,0.15 -1.342,-0.158c-5.223,-2.825 -9.288,-7.959 -13.55,-12.191c1.415,4.048 4.112,10.704 7.84,14.991c-0.518,0.18 -1.043,0.321 -1.574,0.342c-0.508,0.026 -0.654,0.158 -1.329,-0.154c-5.223,-2.83 -9.301,-7.95 -13.559,-12.191c1.171,3.351 3.215,8.472 5.989,12.576c-1.24,0.222 -2.505,0.167 -3.698,-0.201c-4.419,-3.779 -7.356,-9.622 -9.827,-15.038c-3.18,-9.015 12.059,-21.8 7.84,-30.584c-1.171,-2.441 -18.56,-22.305 -26.092,-53.761c-1.039,-4.766 -2.176,-9.998 -1.765,-14.798c0.055,-0.295 4.526,-19.142 14.785,-35.317c7.045,19.697 20.668,34.457 37.39,40.493c-2.928,1.312 -5.852,2.163 -8.622,2.424c-3.616,-2.766 -8.023,-4.279 -12.738,-3.42c19.171,12.542 14.982,19.086 17.615,39.253c0.428,3.052 1.214,6.121 2.137,8.673c1.783,5.13 1.719,7.134 0.009,8.041c2.116,1.581 6.313,1.295 8.677,2.504c3.894,2.005 6.934,3.501 9.169,7.088c-0.671,0.299 -1.188,0.508 -2.069,0.88c-5.074,-1.487 -12.691,2.116 -12.396,7.549c0.761,-1.116 1.787,-1.8 2.924,-2.18c-0.056,6.711 3.817,15.222 7.587,20.372m10.909,-4.971c0.902,3.557 1.026,7.746 -0.222,8.605c-0.428,0.295 -0.825,0.598 -1.232,0.906c-0.645,-2.526 -2.355,-5.518 -3.466,-7.498c1.645,-0.675 3.283,-1.342 4.92,-2.013m45.13,-3.958l6.305,11.785c1.83,-0.325 3.587,-0.368 5.177,-0.158l-4.984,-9.503c-0.838,-2.004 -4.224,-2.338 -6.498,-2.124m2.775,12.708l-6.387,-11.93c-1.111,0.359 -1.859,0.662 -2.868,1.192l6.399,11.969c1.073,-0.547 1.83,-0.868 2.856,-1.231m0.119,3.753c-6.035,2.556 -8.989,7.207 -7.75,9.656c0.595,-2.111 3.258,-4.539 6.908,-6.07c6.6,-2.769 12.478,-1.038 10.075,3.394c7.912,-5.992 -0.645,-10.613 -9.233,-6.98m10.178,-20.979l-12.674,-27.704l-9.733,18.09l3.236,6.498l19.171,3.116Zm-36.458,-58.143l-2.705,14.884l6.877,13.811l8.605,-15.986l-12.777,-12.709Zm18.492,18.864l-9.985,18.543l-1.565,-3.15l9.588,-17.817l1.564,1.556l0.398,0.868Zm-33.093,26.763c-6.34,2.689 -12.619,5.377 -18.847,8.057c0.509,2.813 1.83,6.361 3.373,9.43c6.758,-2.68 13.486,-5.36 20.171,-8.049l-4.697,-9.438Zm-68.064,32.311c0.915,1.86 1.736,3.642 2.633,5.326c-28.849,12.033 -57.317,25.002 -83.956,40.373c-3.509,-3.586 -7.515,-11.507 -7.78,-16.765c29.892,-8.378 58.784,-19.479 88.064,-31.695c0.231,0.932 0.586,1.846 1.039,2.761m234.676,122.389c7.951,0.209 14.256,3.548 14.974,13.725c-1.346,1.039 -3.253,1.026 -4.296,0.915c0.146,-8.947 -6.736,-13.127 -14.067,-12.67c1.372,-1.282 3.389,-1.97 3.389,-1.97m-67.14,-130.686c6.147,4.326 37.907,27.229 37.907,38.377c-0,6.835 -8.609,40.672 7.228,70.855c-0.953,1.868 -2.21,3.539 -3.714,5.018c1.543,0.269 2.966,0.697 4.176,1.214c0.714,0.295 1.286,0.765 1.74,1.329c1.504,0.27 2.671,0.637 3.334,0.89c0.842,0.303 1.526,0.85 2.026,1.513c1.017,0.158 2.022,0.389 3.03,0.705c0.988,0.312 1.774,0.949 2.322,1.735c0.906,0.112 1.812,0.261 2.727,0.501c1.876,0.487 3.141,2.107 3.308,3.928c0.248,0.017 0.487,0.026 0.71,0.026c12.46,-0 22.009,5.095 22.009,17.499c2.522,0.915 5.138,2.339 5.138,2.339l0,10.323c-14.999,11.212 -54.256,15.576 -75.625,1.256c-9.023,1.851 -25.096,-0.756 -28.378,-3.761l-0,-12.691c-0,-0 0.354,-0.612 1.479,-0.907c-2.022,-9.899 -0.838,-17.376 4.039,-24.929c-1.646,-1.282 -3.031,-2.761 -4.018,-4.462c4.445,-9.78 7.438,-22.681 9.105,-33.265c-1.612,-6.711 -2.146,-16.508 -0.881,-24.771c-16.478,-3.377 -26.288,-13.55 -30.131,-18.406c-3.189,-4.035 -9.524,-1.068 -12.691,3.663c-6.745,11.435 -22.536,15.167 -25.352,29.465c-3.754,18.94 -15.03,24.848 -12.136,36.787c-2.932,2.312 -6.215,4.428 -9.699,6.223c1.748,4.176 2.219,9.473 2.005,14.371l1.62,1.607l0,9.892c-2.146,2.146 -8.985,5.813 -13.208,6.775c0.102,2.744 0.303,5.527 0.256,8.335c-0.12,8.036 -17.478,8.69 -23.27,9.349c-12.14,0.684 -24.468,1.261 -36.372,-1.723c-3.087,-0.769 -6.609,-2.338 -6.203,-6.403c-0.017,-1.035 0.009,-6.408 0,-7.323c0.406,-0.329 1.791,-1.504 2.975,-2.513c1.313,-11.849 13.461,-18.705 21.548,-21.988c1.877,-2.894 4.399,-7.062 6.968,-10.601c-1.441,-0.979 -2.864,-2.082 -4.271,-3.403c8.105,-17.414 15.521,-27.425 28.174,-42.232c10.306,-11.999 8.237,-11.067 11.721,-20.787c2.817,-7.857 9.203,-25.694 18.513,-38.561c0.359,1.21 0.239,-0.124 8.724,17.017c2.065,4.168 6.608,6.728 12.43,6.728c12.085,-0.008 25.754,-10.84 21.326,-21.342l-3.326,-6.369c-1.722,-2.809 -4.086,-3.356 -5.475,-3.031l5.629,10.742c3.172,7.557 -7.835,16.564 -18.154,16.564c-3.881,-0 -7.835,-1.36 -9.378,-4.89l-8.237,-15.714c-0.547,-1.295 -0.675,-2.616 -0.479,-3.928l-8.882,-1.432l-4.292,-8.596l-8.874,3.629c0.77,2.663 3.044,12.183 -2.449,16.013c-5.792,4.018 -8.955,8.399 -12.764,14.221c-1.218,0.586 -2.329,1.158 -4.437,1.158c-2.364,0 -4.933,-0.85 -7.061,-2.701c-1.099,0.252 -2.227,0.342 -3.364,0.231c-3.373,3.077 -8.524,4.15 -12.422,1.709c-4.262,1.954 -8.571,1.86 -12.101,0.372c-2.236,-1.821 -4.048,-3.77 -5.609,-5.869c-27.207,11.785 -62.374,27.964 -87.504,43.699c-8.993,-2.33 -17.628,-22.245 -13.199,-31.379c29.69,-7.746 63.566,-20.881 93.172,-33.231c1.607,-8.207 8.279,-16.341 8.78,-21.385c-0.022,-0.415 -0.03,-0.462 -0.142,-0.637c-13.251,-17.534 -22.125,-37.159 -26.258,-55.052c-1.184,-5.758 -2.505,-11.276 -1.812,-17.303c0.094,-0.509 11.686,-50.534 42.621,-61.271c4.262,-9.319 12.191,-17.5 22.783,-23.211c10.798,-5.822 29.336,-11.691 57.318,-7.801c-4.796,-12.939 -2.24,-31.038 10.314,-32.546c-0.351,-5.275 0.295,-12.623 1.782,-18.043c-0.209,-0.176 -0.414,-0.342 -0.606,-0.526c-0.556,-0.415 -1.185,-1.941 -1.103,-2.595c-0,-0.594 -0.09,-5.621 -0.009,-7.95c0.611,-19.039 11.11,-38.847 27.203,-47.482c3.215,-6.801 16.312,-8.032 22.912,-7.929c5.993,0.145 12.332,1.282 17.543,4.676c1.231,0.923 2.415,1.932 3.552,3.014c23.809,9.446 29.438,37.646 28.293,60.771c10.896,11.49 9.9,10.455 11.148,11.704l-0.419,2.474c-3.039,1.933 -7.006,3.459 -11.524,4.634c4.868,2.492 6.544,10.203 5.95,17.457c9.468,-3.103 19.265,-3.141 28.785,0.056c12.81,-10.084 32.589,-10.729 48.007,-5.758c-5.407,-13.478 0.517,-31.533 -5.869,-39.411c-4.048,-4.997 -18.44,-4.565 -24.096,-11.02c-5.343,-6.1 -13.772,-16.025 -14.217,-24.352c0.043,-3.903 7.69,-10.156 10.789,-12.524c-0.769,-7.66 -0.645,-14.606 6.664,-17.278c3.407,-1.338 6.442,-1.193 9.703,-2.321c3.412,-1.265 7.109,-2.022 10.306,0.085c4.66,-2.081 9.122,-0.991 12.986,2.441c3.459,0.111 8.357,2.496 10.426,4.835c2.996,1.094 8.592,4.676 9.861,8.023c2.599,5.736 3.625,11.605 4.514,17.744c0.975,5.672 -1.953,13.045 -4.022,16.777c16.735,25.412 26.793,61.254 27.434,83.268c0.068,2.402 -1.295,4.437 -2.441,6.241c-17.453,23.685 -55.821,44.109 -95.1,44.348c-2.154,17.017 -13.349,33.979 -26.835,43.81c-5.728,20.039 -19.112,38.334 -36.287,50.072c-5.48,12.469 -12.486,24.104 -20.317,35.115m61.802,-81.575c13.221,-10.289 23.257,-25.994 26.703,-41.544c52.491,-2.432 98.998,-39.429 98.485,-56.642c-0.603,-20.039 -9.776,-56.655 -26.558,-83.49c2.308,-5.322 4.023,-11.589 3.074,-17.312c-0.894,-6.143 -2.133,-12.627 -4.912,-19.15c-1.611,-3.787 -4.206,-7.31 -12.02,-10.798c-2.915,-2.646 -7.378,-4.787 -11.383,-5.492c-4.51,-3.343 -9.746,-4.566 -15.033,-3.159c-4.224,-1.526 -8.524,-0.795 -12.696,0.743c-2.56,0.868 -5.745,0.774 -9.823,2.364c-8.904,3.296 -11.216,10.691 -10.754,20.176c-4.737,3.967 -10.516,9.195 -10.576,15.371c0.53,10.182 8.849,20.356 15.709,28.187c6.899,7.873 20.698,7.967 23.98,10.891c3.005,4.202 1.125,16.786 2.411,27.468c-13.789,-2.261 -29.276,-0.607 -41.027,7.254c-7.185,-1.945 -14.542,-2.308 -21.881,-1.056c-0.321,-2.389 -0.902,-4.736 -1.791,-6.886c3.069,-1.338 4.454,-2.3 7.057,-3.954l1.372,-8.173c-3.872,-3.873 -1.799,-1.727 -11.485,-11.939c0.731,-26.292 -7.1,-53.41 -31.102,-63.622c-1,-0.902 -2.783,-2.398 -3.565,-2.902c-6.254,-4.074 -14.187,-5.66 -21.561,-5.66c-6.253,0 -20.714,0.971 -26.532,9.503c-16.641,9.75 -28.16,30.293 -28.849,51.713c-0.081,2.291 0.022,6.305 0.005,8.053c-0.013,1.526 0.419,3.223 1.201,4.698c-0.774,3.77 -1.253,8.075 -1.347,12.08c-10.656,4.787 -13.7,18.526 -12.105,30.152c-21.95,-1.675 -39.548,2.527 -52.295,9.404c-10.72,5.779 -19.257,14.14 -24.283,23.724c-32.902,13.602 -44.088,64.451 -44.182,64.969c-1.945,10.669 5.228,44.297 27.673,75.014c-1.624,4.009 -5.424,9.724 -7.399,16.042c-30.627,12.708 -60.895,24.322 -92.3,32.516c-7.275,15.017 0.825,38.407 18.393,42.959c25.878,-16.209 56.561,-30.537 84.811,-42.873c2.873,3.001 8.049,8.186 19.18,4.719c4.882,1.697 10.285,0.731 14.564,-2.116c5.877,3.505 10.878,2.851 17.055,-0.098c3.817,-5.831 6.51,-10.118 12.093,-13.991c4.253,-2.962 6.369,-8.186 6.129,-14.636l2.048,4.104l2.428,0.389c-7.635,11.832 -14.841,29.631 -18.496,41.595c-1.783,5.839 -4.373,8.391 -8.913,13.674c-17.205,20.133 -22.317,29.127 -30.883,47.538c-0,-0 3.343,3.146 3.437,3.231c-1.018,1.56 -1.979,3.086 -2.911,4.557c-12.871,5.642 -20.937,13.93 -23.053,23.642c-1.257,1.06 -1,0.842 -3.454,2.851c0.077,7.605 -0.013,4.745 0.026,9.93c-0.252,3.655 0.919,9.755 10.626,12.413c0.163,0.047 0.103,0.03 0.261,0.064c12.554,2.852 25.13,2.591 38.039,1.86c0.043,-0 2.403,-0.231 2.445,-0.235c9.195,-0.859 26.31,-2.454 26.498,-15.008c0.026,-1.436 -0.013,-2.838 -0.064,-4.206c4.352,-1.808 9.054,-4.557 11.255,-6.754l1.761,-1.761l0,-14.88l-1.573,-1.564c-0.013,-2.74 -0.239,-5.899 -0.919,-9.05c3.834,-2.351 5.929,-4.099 9.301,-6.758c-1.65,-6.817 -2.351,-7.189 2.856,-16.585c2.911,-5.253 6.531,-11.789 8.429,-21.372c2.227,-11.302 17.068,-14.949 24.532,-27.4c1.132,-1.642 2.453,-2.462 3.274,-2.697c3.762,4.62 12.977,14.157 27.943,18.743c-0.466,6.852 -0.009,14.329 1.291,20.433c-1.95,11.921 -5.014,23.018 -8.455,30.584l-1.283,2.825c1.56,2.689 2.048,3.651 3.283,5.177c-3.197,6.574 -4.168,13.448 -3.056,21.492c-0.133,0.21 -0.137,0.218 -0.983,1.684l-0,16.945l1.953,1.786c4.74,4.339 18.013,5.959 25.267,5.959c2.124,0 4.091,-0.115 5.882,-0.337c23.467,13.947 63.541,9.946 80.51,-2.736l2.411,-1.8l0,-16.91c-2.71,-1.475 -3.654,-2.022 -5.445,-2.872c-1.732,-11.217 -10.712,-18.338 -24.481,-19.291c-1.906,-2.548 -4.261,-3.617 -7.066,-4.177c-1.654,-1.346 -3.27,-1.885 -5.347,-2.372c-1.47,-1.167 -2.941,-1.714 -4.843,-2.231l1.133,-2.219c-17.188,-32.751 -7.985,-59.288 -7.985,-70.816c-0,-11.191 -18.359,-27.225 -35.603,-39.817c6.852,-10.118 12.384,-19.894 16.812,-29.704c17.231,-12.251 30.469,-30.46 36.676,-50.431m-170.875,12.276l-5.181,28.447c-0.632,-0.384 -3.124,-1.863 -3.727,-2.231c-2.411,-5.591 -2.95,-11.374 -3.518,-17.466c-0.483,-5.133 -0.97,-10.391 -2.646,-15.55c4.813,-2.125 9.66,-5.126 14.208,-8.789c1.492,3.809 3.275,7.857 5.438,11.879l-4.574,3.71Zm-23.121,-10.267c6.869,12.016 2.505,26.481 9.502,40.612c5.373,3.544 10.712,5.412 14.153,12.076c1.543,-0.675 3.557,-1.573 6.267,-2.766l-5.797,-11.626l4.51,-24.763l6.831,-5.548c-4.668,-7.476 -7.848,-15.547 -10.593,-23.826c-6.911,7.181 -15.961,13.383 -24.873,15.841m-10.349,207.324l-1.932,-1.437c-6.074,2.146 -11.998,9.174 -13.174,16.534c1.244,0.543 3.509,0.744 5.275,0.607c0.111,-6.343 3.599,-13.554 9.831,-15.704m169.994,-322.668c3.411,-4.788 1.932,-13.067 -1.718,-15.111c-0.073,0.167 -0.145,0.334 -0.231,0.509c0.936,1.423 1.599,3.475 1.851,5.831c-0.898,0.816 -2.12,1.773 -3.257,2.239c0.778,0.86 1.898,1.911 3.201,2.339c-0.188,1.346 -0.508,2.569 -0.944,3.629c0.38,0.175 0.748,0.363 1.098,0.564m-27.451,-7.275c0.62,0.778 1.518,1.748 2.625,2.175c-0.167,0.971 -0.359,1.92 -0.62,2.809c0.761,0.316 1.509,0.675 2.24,1.09c1.193,-2.291 1.718,-5.211 1.646,-7.883c-1.056,-0.564 -1.988,-1.333 -2.86,-2.192c0.021,0.778 0.021,1.564 -0.017,2.338c-0.812,0.62 -1.966,1.359 -3.014,1.663m0.077,34.803c3.89,1.799 10.896,0.731 17.09,-1.159c-5.596,0.167 -15.504,-0.367 -19.783,-3.971c-0.256,3.309 1.36,4.51 2.693,5.13m59.848,292.716c-1.56,-0.41 -3.099,-0.573 -4.595,-0.496c0.491,-0.727 0.085,-1.56 -0.607,-1.778c-1.116,-0.355 -2.689,-0.714 -4.505,-0.752c0.188,-0.56 -0.009,-1.27 -0.697,-1.522c-0.787,-0.295 -2.437,-0.812 -4.531,-0.962c0.102,-0.539 -0.154,-1.09 -0.68,-1.312c-3.821,-1.616 -10.088,-2.21 -15.17,1.427c-0.534,0.381 -0.654,1.12 -0.274,1.655c0.381,0.53 1.116,0.649 1.65,0.273c3.446,-2.47 7.566,-2.616 10.742,-1.863c-1.851,0.316 -3.83,1.021 -5.753,2.385c-0.937,0.662 -0.466,2.15 0.684,2.15c0.239,-0 0.478,-0.073 0.683,-0.218c3.856,-2.732 8.002,-2.334 10.345,-1.761c-1.719,0.329 -3.539,1.017 -5.343,2.274c-0.535,0.376 -0.663,1.111 -0.291,1.65c0.376,0.534 1.111,0.662 1.65,0.29c3.779,-2.645 7.711,-2.278 10.079,-1.658c-1.782,0.368 -3.488,1.077 -5.065,2.163c-0.957,0.658 -0.487,2.158 0.671,2.158c0.231,0 0.462,-0.068 0.667,-0.209c2.915,-2 6.189,-2.539 9.737,-1.603c0.633,0.167 1.278,-0.209 1.445,-0.842c0.167,-0.633 -0.209,-1.282 -0.842,-1.449m-155.88,-8.724c0.193,3.731 -0.641,7.536 -1.38,11.182c1.094,0.068 2.355,-0.094 3.33,-0.941c-0.069,-3.56 -0.18,-7.121 -1.167,-10.562c-0.265,0.09 -0.526,0.192 -0.783,0.321m92.856,6.399c-0.269,-0.077 -0.547,-0.124 -0.829,-0.15c-1.889,3.958 -1.898,8.079 -1.043,12.396c0.872,0.513 2.116,1.082 3.257,1.035c0.287,-0.419 0.402,-0.988 0.124,-1.642c-1.564,-3.693 -2.513,-7.681 -1.509,-11.639m-118.862,1.607c-4.086,-2.368 -11.763,-3.612 -17.859,-2.898c-0.65,0.077 -1.115,0.662 -1.039,1.312c0.077,0.65 0.654,1.116 1.313,1.039c5.561,-0.654 12.764,0.487 16.397,2.594c0.568,0.325 1.291,0.133 1.616,-0.431c0.329,-0.565 0.136,-1.291 -0.428,-1.616m2.676,-4.108c-4.133,-2.445 -11.366,-3.702 -17.585,-3.065c-0.65,0.069 -1.125,0.65 -1.056,1.3c0.068,0.649 0.65,1.124 1.295,1.055c5.677,-0.585 12.46,0.569 16.141,2.745c0.564,0.333 1.291,0.149 1.62,-0.415c0.333,-0.56 0.149,-1.287 -0.415,-1.62m2.847,-3.954c0.41,0.372 0.53,0.979 0.235,1.47c-0.338,0.56 -1.064,0.74 -1.624,0.402c-3.732,-2.248 -10.118,-3.419 -15.884,-2.898c-0.659,0.043 -1.227,-0.423 -1.283,-1.073c-0.06,-0.649 0.419,-1.227 1.073,-1.282c0.898,-0.081 1.808,-0.12 2.719,-0.128c4.958,2.393 9.964,3.398 14.764,3.509m136.866,-198.428c-2.227,1.932 -3.53,3.03 -5.86,4.971c-10.332,1.282 -20.287,1.949 -30.362,2.022c0.821,-6.69 1.876,-15.777 2.633,-23.142c12.118,-0.073 23.754,-0.898 35.513,-2.522c1.423,1.145 2.347,1.885 3.65,2.945c-1.167,4.633 -4.796,13.785 -5.574,15.726m14.474,-36.8c-28.708,5.677 -53.321,5.527 -78.536,1.407l-0.637,16.619c3.595,0.62 5.416,0.923 9.156,1.359l-3.398,59.468c-2.847,-0.312 -4.467,-0.59 -7.6,-1.107l-0.479,18.077c11.221,1.645 19.5,1.675 31.858,1.231c0.786,-5.741 1.278,-9.225 2.552,-17.376c-3.223,0.098 -4.946,0.166 -8.16,0.166c0.923,-7.583 1.876,-15.05 2.641,-21.065c13.542,-0.055 26.161,-1.184 39.377,-3.171c5.805,-5.13 10.99,-9.853 16.564,-15.235c3.048,-7.818 8.216,-21.821 9.648,-30.084c-4.741,-3.967 -7.754,-6.258 -12.986,-10.289m48.832,-18.632c-0.62,-6.895 -3.03,-13.606 -7.412,-18.8c6.108,30.191 -7.429,55.202 -26.01,66.375c-5.792,21.467 -20.916,39.967 -36.398,49.17c-4.946,11.046 -11.268,21.51 -18.376,31.448c-4.809,1.274 -10.67,2.218 -16.992,2.603c-7.318,0.453 -15.756,0.731 -22.599,-0.286l2,-1.616l-20.975,-45.844l-24.732,-24.596l-2.886,2.338c-4.723,-8.173 -7.762,-17.517 -10.387,-26.536c0.932,-1.351 1.774,-2.71 2.505,-4.04c9.289,-1.103 18.205,-5.39 24.13,-12.601c-14.268,4.411 -25.378,8.857 -51.825,4.975c5.074,4.249 11.341,6.746 17.885,7.588c-3.411,4.77 -8.241,9.558 -13.529,13.302c-18.709,-4.014 -34.042,-20.244 -40.561,-42.638c4.07,-5.096 8.819,-9.533 14.32,-12.461c0.081,0.359 1.637,6.959 5.783,12.008c-0.431,-2.783 -0.628,-6.186 0,-9.631c2.073,-11.195 10.306,-21.42 22.6,-28.045c10.537,-5.677 29.144,-11.396 58.001,-6.433c2.894,3.872 6.775,6.369 11.516,6.287c-9.853,33.385 18.025,69.321 57.864,50.094c5.655,0.739 11.199,0.038 16.726,-2.475c13.653,3.791 26.836,-12.478 18.821,-27.139c5.668,-18.069 5.129,-27.682 3.206,-34.568c0.761,-1.185 1.398,-2.625 1.923,-4.224c8.238,-3.436 16.787,-4.189 25.122,-2.116c-3.42,4.185 -5.758,9.225 -6.745,14.474c9.622,-14.944 22.505,-20.736 38.282,-20.971c-11.1,20.804 -12.866,45.567 2.544,61.981c-7.865,1.59 -15.85,2.406 -23.801,2.377m-131.352,-115.161c1.535,-17.799 11.969,-35.188 26.109,-42.018c7.416,2.782 13.054,8.959 16.5,16.149c4.197,8.549 4.659,18.004 5.407,27.506c7.053,-14.623 -0.009,-39.513 -16.773,-47.426c7.476,-1.624 19,-1.624 25.95,2.792c6.972,5.232 11.973,12.849 14.726,21.137c2.33,6.955 3.227,14.136 4.001,21.527c3.873,-11.781 1.556,-24.28 -4.151,-34.235c12.999,12.037 15.235,31.76 14.115,49.508c-1.376,2.086 -3.715,3.714 -5.664,5.249c2.552,-0.231 5.121,-0.415 7.54,-1.248l8.541,9.01c-17.081,7.524 -59.95,5.177 -67.974,2.044c-1.855,-2.052 -3.761,-4.771 -5.441,-7.498c5.561,0.363 10.823,0.244 14.824,-0.192c-12.828,-1.582 -27.468,-5.091 -37.86,-13.059c-0.055,-3.035 -0.128,-6.305 0.15,-9.246" style="fill:#fff;fill-rule:nonzero;stroke:#000;stroke-width:1.67px;"/></svg>