<?xml version="1.0" encoding="UTF-8" standalone="no"?><!DOCTYPE svg PUBLIC "-//W3C//DTD SVG 1.1//EN" "http://www.w3.org/Graphics/SVG/1.1/DTD/svg11.dtd"><svg width="100%" height="100%" viewBox="0 0 1013 1375" version="1.1" xmlns="http://www.w3.org/2000/svg" xmlns:xlink="http://www.w3.org/1999/xlink" xml:space="preserve" xmlns:serif="http://www.serif.com/" style="fill-rule:evenodd;clip-rule:evenodd;stroke-linejoin:round;stroke-miterlimit:2;"><path d="M304.823,199.677c-0.476,-0.364 -1.085,-0.507 -1.672,-0.391c-28.437,5.624 -52.818,5.476 -77.796,1.395c-0.59,-0.097 -1.192,0.065 -1.655,0.443c-0.462,0.378 -0.74,0.936 -0.763,1.533l-0.637,16.619c-0.04,1.044 0.699,1.956 1.728,2.133c2.957,0.51 4.728,0.808 7.319,1.138c-0,0 -3.161,55.301 -3.161,55.301c-1.663,-0.221 -3.106,-0.465 -5.307,-0.828c-0.594,-0.098 -1.202,0.066 -1.666,0.449c-0.464,0.384 -0.74,0.949 -0.756,1.551l-0.479,18.077c-0.028,1.055 0.737,1.964 1.781,2.117c11.353,1.665 19.731,1.701 32.235,1.252c1.012,-0.037 1.852,-0.796 1.989,-1.8c0.785,-5.727 1.275,-9.203 2.546,-17.337c0.096,-0.612 -0.086,-1.235 -0.496,-1.7c-0.41,-0.465 -1.006,-0.723 -1.626,-0.704c-2.319,0.071 -3.855,0.126 -5.741,0.151c0.74,-6.021 1.485,-11.881 2.123,-16.897c12.958,-0.146 25.129,-1.268 37.85,-3.181c0.398,-0.06 0.769,-0.233 1.07,-0.499c5.829,-5.151 11.035,-9.893 16.631,-15.297c0.217,-0.209 0.385,-0.462 0.494,-0.742c3.088,-7.921 8.309,-22.114 9.76,-30.485c0.127,-0.732 -0.146,-1.477 -0.716,-1.954c-4.766,-3.988 -13.055,-10.344 -13.055,-10.344Zm-1.792,3.879c1.96,1.511 7.379,5.707 11.235,8.883c-1.632,8.096 -6.264,20.658 -9.146,28.077c-5.281,5.092 -10.226,9.601 -15.708,14.452c-12.896,1.916 -25.238,3.004 -38.468,3.058c-1.046,0.004 -1.926,0.783 -2.058,1.82c-0.766,6.018 -1.719,13.489 -2.643,21.077c-0.072,0.592 0.113,1.186 0.508,1.633c0.396,0.446 0.963,0.702 1.56,0.702c2.304,-0 3.848,-0.035 5.716,-0.091c-0.883,5.708 -1.352,8.975 -1.933,13.195c-10.602,0.351 -18.241,0.286 -27.901,-1.013c-0,-0 0.366,-13.83 0.366,-13.83c1.833,0.296 3.269,0.506 5.354,0.735c0.568,0.062 1.136,-0.112 1.572,-0.481c0.437,-0.369 0.702,-0.901 0.735,-1.472l3.398,-59.467c0.063,-1.101 -0.743,-2.06 -1.839,-2.188c-3.017,-0.352 -4.77,-0.616 -7.245,-1.035c-0,-0 0.477,-12.449 0.477,-12.449c24.374,3.752 48.322,3.767 76.023,-1.607l-0.003,0.001Z" style="stroke:#000;stroke-width:2.71px;"/></svg>