<?xml version="1.0" encoding="UTF-8" standalone="no"?><!DOCTYPE svg PUBLIC "-//W3C//DTD SVG 1.1//EN" "http://www.w3.org/Graphics/SVG/1.1/DTD/svg11.dtd"><svg width="100%" height="100%" viewBox="0 0 1013 1375" version="1.1" xmlns="http://www.w3.org/2000/svg" xmlns:xlink="http://www.w3.org/1999/xlink" xml:space="preserve" xmlns:serif="http://www.serif.com/" style="fill-rule:evenodd;clip-rule:evenodd;stroke-linejoin:round;stroke-miterlimit:2;"><path d="M210.062,329.485c-6.035,2.556 -8.989,7.207 -7.75,9.656c0.595,-2.111 3.258,-4.539 6.908,-6.07c6.6,-2.769 12.478,-1.038 10.075,3.394c7.912,-5.992 -0.645,-10.613 -9.233,-6.98" style="fill:#fff;fill-rule:nonzero;stroke:#000;stroke-width:1.67px;"/><path d="M303.555,201.33c-28.708,5.677 -53.321,5.527 -78.536,1.407l-0.637,16.619c3.595,0.62 5.416,0.923 9.156,1.359l-3.398,59.468c-2.847,-0.312 -4.467,-0.59 -7.6,-1.107l-0.479,18.077c11.221,1.645 19.5,1.675 31.858,1.231c0.786,-5.741 1.278,-9.225 2.552,-17.376c-3.223,0.098 -4.946,0.166 -8.16,0.166c0.923,-7.583 1.876,-15.05 2.641,-21.065c13.542,-0.055 26.161,-1.184 39.377,-3.171c5.805,-5.13 10.99,-9.853 16.564,-15.235c3.048,-7.818 8.216,-21.821 9.648,-30.084c-4.741,-3.967 -7.754,-6.258 -12.986,-10.289" style="fill:#fff;fill-rule:nonzero;stroke:#000;stroke-width:1.67px;"/><g><path d="M17.004,17.868c0,0.758 -0.087,1.455 -0.261,2.09c-0.173,0.635 -0.431,1.183 -0.772,1.644c-0.341,0.461 -0.761,0.821 -1.26,1.08c-0.5,0.259 -1.075,0.389 -1.725,0.389c-0.626,-0 -1.168,-0.111 -1.626,-0.332c-0.458,-0.221 -0.851,-0.54 -1.18,-0.957l-0.104,1.099l-2.057,0l0,-14.557l2.266,-0l-0,5.279c0.322,-0.373 0.701,-0.66 1.137,-0.863c0.436,-0.202 0.951,-0.303 1.545,-0.303c0.657,0 1.236,0.128 1.739,0.384c0.502,0.256 0.924,0.614 1.265,1.076c0.341,0.461 0.599,1.012 0.772,1.654c0.174,0.641 0.261,1.347 0.261,2.118l0,0.199Zm-2.265,-0.199c-0,-0.455 -0.04,-0.886 -0.119,-1.294c-0.078,-0.407 -0.208,-0.766 -0.388,-1.076c-0.18,-0.309 -0.422,-0.554 -0.725,-0.734c-0.303,-0.18 -0.676,-0.27 -1.118,-0.27c-0.538,-0 -0.977,0.123 -1.318,0.369c-0.341,0.247 -0.603,0.569 -0.786,0.967l-0,4.237c0.183,0.398 0.447,0.723 0.791,0.976c0.344,0.253 0.788,0.379 1.331,0.379c0.43,-0 0.793,-0.087 1.09,-0.261c0.297,-0.174 0.537,-0.412 0.721,-0.715c0.183,-0.304 0.316,-0.659 0.398,-1.067c0.082,-0.407 0.123,-0.845 0.123,-1.312l-0,-0.199Z" style="fill-rule:nonzero;"/><path d="M23.705,18.778l0.388,1.232l2.881,-7.383l2.512,-0l-5.194,11.809c-0.113,0.259 -0.262,0.538 -0.445,0.839c-0.183,0.3 -0.409,0.579 -0.678,0.838c-0.268,0.259 -0.589,0.476 -0.962,0.65c-0.373,0.173 -0.808,0.26 -1.308,0.26c-0.208,0 -0.418,-0.017 -0.63,-0.052c-0.212,-0.035 -0.4,-0.074 -0.564,-0.118l0.322,-1.763c0.045,-0 0.105,0.001 0.181,0.004c0.075,0.004 0.154,0.008 0.236,0.015c0.083,0.006 0.16,0.011 0.233,0.014c0.072,0.003 0.131,0.005 0.175,0.005c0.221,-0 0.419,-0.065 0.592,-0.195c0.174,-0.129 0.327,-0.278 0.46,-0.445c0.133,-0.168 0.242,-0.332 0.327,-0.493c0.085,-0.161 0.147,-0.27 0.185,-0.327l0.673,-1.27l-4.36,-9.771l2.502,-0l2.474,6.151Z" style="fill-rule:nonzero;"/><path d="M47.474,10.144l0,2.483l3.877,-0l-0,1.687l-3.877,-0l0,4.919c0,0.385 0.046,0.704 0.138,0.957c0.091,0.253 0.219,0.455 0.384,0.606c0.164,0.152 0.357,0.258 0.578,0.318c0.221,0.06 0.464,0.09 0.73,0.09c0.195,-0 0.399,-0.011 0.611,-0.033c0.212,-0.022 0.417,-0.048 0.616,-0.076c0.199,-0.029 0.382,-0.06 0.55,-0.095c0.167,-0.035 0.308,-0.068 0.421,-0.099l0.256,1.563c-0.164,0.095 -0.361,0.182 -0.592,0.261c-0.231,0.079 -0.482,0.144 -0.754,0.194c-0.271,0.051 -0.554,0.09 -0.848,0.119c-0.294,0.028 -0.583,0.042 -0.867,0.042c-0.512,0 -0.981,-0.071 -1.407,-0.213c-0.427,-0.142 -0.793,-0.363 -1.1,-0.663c-0.306,-0.3 -0.546,-0.686 -0.72,-1.156c-0.174,-0.471 -0.261,-1.035 -0.261,-1.692l0,-5.042l-2.502,-0l0,-1.687l2.502,-0l0,-2.483l2.265,-0Z" style="fill-rule:nonzero;"/><path d="M54.166,17.659c-0,-0.739 0.109,-1.428 0.327,-2.066c0.218,-0.638 0.53,-1.191 0.938,-1.658c0.407,-0.468 0.905,-0.834 1.493,-1.1c0.587,-0.265 1.254,-0.398 1.999,-0.398c0.752,0 1.424,0.133 2.014,0.398c0.591,0.266 1.09,0.632 1.498,1.1c0.407,0.467 0.718,1.02 0.933,1.658c0.215,0.638 0.323,1.327 0.323,2.066l-0,0.199c-0,0.746 -0.108,1.438 -0.323,2.076c-0.215,0.638 -0.526,1.189 -0.933,1.654c-0.408,0.464 -0.905,0.829 -1.493,1.094c-0.588,0.266 -1.254,0.398 -2,0.398c-0.752,0 -1.423,-0.132 -2.014,-0.398c-0.59,-0.265 -1.09,-0.63 -1.497,-1.094c-0.408,-0.465 -0.72,-1.016 -0.938,-1.654c-0.218,-0.638 -0.327,-1.33 -0.327,-2.076l-0,-0.199Zm2.265,0.199c-0,0.468 0.049,0.907 0.147,1.318c0.098,0.41 0.249,0.772 0.455,1.085c0.205,0.313 0.466,0.559 0.781,0.739c0.316,0.18 0.692,0.27 1.128,0.27c0.424,0 0.792,-0.09 1.104,-0.27c0.313,-0.18 0.572,-0.426 0.778,-0.739c0.205,-0.313 0.357,-0.675 0.454,-1.085c0.098,-0.411 0.147,-0.85 0.147,-1.318l0,-0.199c0,-0.455 -0.049,-0.887 -0.147,-1.298c-0.097,-0.411 -0.249,-0.771 -0.454,-1.081c-0.206,-0.309 -0.465,-0.556 -0.778,-0.739c-0.312,-0.183 -0.687,-0.275 -1.123,-0.275c-0.429,0 -0.802,0.092 -1.118,0.275c-0.316,0.183 -0.575,0.43 -0.777,0.739c-0.202,0.31 -0.352,0.67 -0.45,1.081c-0.098,0.411 -0.147,0.843 -0.147,1.298l-0,0.199Z" style="fill-rule:nonzero;"/><path d="M67.538,12.627l0.057,1.08c0.202,-0.398 0.474,-0.709 0.815,-0.933c0.342,-0.225 0.752,-0.337 1.232,-0.337c0.436,0 0.798,0.087 1.086,0.261c0.287,0.174 0.503,0.444 0.649,0.81c0.202,-0.328 0.461,-0.589 0.777,-0.782c0.316,-0.192 0.698,-0.289 1.147,-0.289c0.335,0 0.643,0.055 0.924,0.166c0.281,0.111 0.521,0.286 0.72,0.526c0.199,0.24 0.354,0.547 0.465,0.919c0.11,0.373 0.165,0.822 0.165,1.346l0,7.487l-2.104,0l0,-7.506c0,-0.41 -0.087,-0.693 -0.26,-0.848c-0.174,-0.155 -0.397,-0.232 -0.668,-0.232c-0.259,-0 -0.465,0.061 -0.616,0.185c-0.152,0.123 -0.263,0.285 -0.332,0.488l-0,7.913l-2.057,0l0,-7.506c0,-0.398 -0.08,-0.677 -0.242,-0.839c-0.161,-0.161 -0.38,-0.241 -0.658,-0.241c-0.266,-0 -0.474,0.057 -0.626,0.17c-0.151,0.114 -0.268,0.269 -0.35,0.465l-0,7.951l-2.104,0l-0,-10.254l1.98,-0Z" style="fill-rule:nonzero;"/><path d="M79.186,12.627l0.057,1.08c0.202,-0.398 0.474,-0.709 0.815,-0.933c0.341,-0.225 0.752,-0.337 1.232,-0.337c0.436,0 0.798,0.087 1.086,0.261c0.287,0.174 0.503,0.444 0.649,0.81c0.202,-0.328 0.461,-0.589 0.777,-0.782c0.316,-0.192 0.698,-0.289 1.147,-0.289c0.335,0 0.643,0.055 0.924,0.166c0.281,0.111 0.521,0.286 0.72,0.526c0.199,0.24 0.354,0.547 0.464,0.919c0.111,0.373 0.166,0.822 0.166,1.346l0,7.487l-2.104,0l0,-7.506c0,-0.41 -0.087,-0.693 -0.26,-0.848c-0.174,-0.155 -0.397,-0.232 -0.669,-0.232c-0.259,-0 -0.464,0.061 -0.616,0.185c-0.151,0.123 -0.262,0.285 -0.331,0.488l-0,7.913l-2.057,0l0,-7.506c0,-0.398 -0.08,-0.677 -0.242,-0.839c-0.161,-0.161 -0.38,-0.241 -0.658,-0.241c-0.266,-0 -0.474,0.057 -0.626,0.17c-0.151,0.114 -0.268,0.269 -0.35,0.465l-0,7.951l-2.104,0l-0,-10.254l1.98,-0Z" style="fill-rule:nonzero;"/><path d="M89.109,17.659c0,-0.739 0.109,-1.428 0.327,-2.066c0.218,-0.638 0.531,-1.191 0.939,-1.658c0.407,-0.468 0.905,-0.834 1.492,-1.1c0.588,-0.265 1.254,-0.398 2,-0.398c0.752,0 1.423,0.133 2.014,0.398c0.591,0.266 1.09,0.632 1.497,1.1c0.408,0.467 0.719,1.02 0.934,1.658c0.215,0.638 0.322,1.327 0.322,2.066l0,0.199c0,0.746 -0.107,1.438 -0.322,2.076c-0.215,0.638 -0.526,1.189 -0.934,1.654c-0.407,0.464 -0.905,0.829 -1.492,1.094c-0.588,0.266 -1.254,0.398 -2,0.398c-0.752,0 -1.423,-0.132 -2.014,-0.398c-0.591,-0.265 -1.09,-0.63 -1.497,-1.094c-0.408,-0.465 -0.721,-1.016 -0.939,-1.654c-0.218,-0.638 -0.327,-1.33 -0.327,-2.076l0,-0.199Zm2.265,0.199c0,0.468 0.049,0.907 0.147,1.318c0.098,0.41 0.25,0.772 0.455,1.085c0.206,0.313 0.466,0.559 0.782,0.739c0.316,0.18 0.692,0.27 1.128,0.27c0.423,0 0.791,-0.09 1.104,-0.27c0.313,-0.18 0.572,-0.426 0.777,-0.739c0.206,-0.313 0.357,-0.675 0.455,-1.085c0.098,-0.411 0.147,-0.85 0.147,-1.318l0,-0.199c0,-0.455 -0.049,-0.887 -0.147,-1.298c-0.098,-0.411 -0.249,-0.771 -0.455,-1.081c-0.205,-0.309 -0.464,-0.556 -0.777,-0.739c-0.313,-0.183 -0.687,-0.275 -1.123,-0.275c-0.43,0 -0.802,0.092 -1.118,0.275c-0.316,0.183 -0.575,0.43 -0.777,0.739c-0.203,0.31 -0.353,0.67 -0.451,1.081c-0.098,0.411 -0.147,0.843 -0.147,1.298l0,0.199Z" style="fill-rule:nonzero;"/><path d="M108.216,12.437c0.183,0 0.367,0.006 0.55,0.019c0.183,0.013 0.358,0.032 0.526,0.057c0.167,0.025 0.32,0.052 0.459,0.081c0.139,0.028 0.256,0.061 0.351,0.099l-0.322,2.227c-0.695,-0.158 -1.381,-0.237 -2.057,-0.237c-0.758,0 -1.369,0.158 -1.834,0.474c-0.464,0.316 -0.807,0.755 -1.028,1.318l0,6.406l-2.265,0l-0,-10.254l2.123,-0l0.104,1.601c0.417,-0.556 0.912,-0.993 1.483,-1.312c0.572,-0.319 1.209,-0.479 1.91,-0.479Z" style="fill-rule:nonzero;"/><path d="M112.405,17.659c0,-0.739 0.109,-1.428 0.327,-2.066c0.218,-0.638 0.531,-1.191 0.938,-1.658c0.408,-0.468 0.906,-0.834 1.493,-1.1c0.588,-0.265 1.254,-0.398 2,-0.398c0.752,0 1.423,0.133 2.014,0.398c0.591,0.266 1.09,0.632 1.497,1.1c0.408,0.467 0.719,1.02 0.934,1.658c0.215,0.638 0.322,1.327 0.322,2.066l0,0.199c0,0.746 -0.107,1.438 -0.322,2.076c-0.215,0.638 -0.526,1.189 -0.934,1.654c-0.407,0.464 -0.905,0.829 -1.492,1.094c-0.588,0.266 -1.255,0.398 -2,0.398c-0.752,0 -1.423,-0.132 -2.014,-0.398c-0.591,-0.265 -1.09,-0.63 -1.498,-1.094c-0.407,-0.465 -0.72,-1.016 -0.938,-1.654c-0.218,-0.638 -0.327,-1.33 -0.327,-2.076l0,-0.199Zm2.265,0.199c0,0.468 0.049,0.907 0.147,1.318c0.098,0.41 0.25,0.772 0.455,1.085c0.205,0.313 0.466,0.559 0.782,0.739c0.316,0.18 0.692,0.27 1.128,0.27c0.423,0 0.791,-0.09 1.104,-0.27c0.313,-0.18 0.572,-0.426 0.777,-0.739c0.205,-0.313 0.357,-0.675 0.455,-1.085c0.098,-0.411 0.147,-0.85 0.147,-1.318l-0,-0.199c-0,-0.455 -0.049,-0.887 -0.147,-1.298c-0.098,-0.411 -0.25,-0.771 -0.455,-1.081c-0.205,-0.309 -0.464,-0.556 -0.777,-0.739c-0.313,-0.183 -0.687,-0.275 -1.123,-0.275c-0.43,0 -0.803,0.092 -1.118,0.275c-0.316,0.183 -0.575,0.43 -0.778,0.739c-0.202,0.31 -0.352,0.67 -0.45,1.081c-0.098,0.411 -0.147,0.843 -0.147,1.298l0,0.199Z" style="fill-rule:nonzero;"/><path d="M126.413,19.507l0.066,0.654l0.105,-0.654l1.469,-6.88l1.488,-0l1.488,6.956l0.104,0.683l0.085,-0.749l0.995,-6.89l2.047,-0l-1.999,10.254l-1.905,0l-1.555,-6.861l-0.019,-0.124l-0.019,0.114l-1.525,6.871l-1.896,0l-2,-10.254l2.038,-0l1.033,6.88Z" style="fill-rule:nonzero;"/><path d="M141.103,22.569c0,0.335 -0.042,0.679 -0.128,1.033c-0.085,0.354 -0.208,0.701 -0.369,1.042c-0.162,0.341 -0.354,0.665 -0.579,0.972c-0.224,0.306 -0.472,0.579 -0.744,0.82l-1.279,-0.673c0.272,-0.455 0.48,-0.934 0.626,-1.436c0.145,-0.503 0.218,-1.063 0.218,-1.682l-0,-1.981l2.265,-0l-0.01,1.905Z" style="fill-rule:nonzero;"/><path d="M165.953,22.881c-0.063,-0.126 -0.115,-0.274 -0.156,-0.445c-0.041,-0.171 -0.077,-0.354 -0.109,-0.55c-0.158,0.165 -0.336,0.318 -0.536,0.46c-0.199,0.142 -0.42,0.267 -0.663,0.374c-0.243,0.108 -0.505,0.193 -0.787,0.256c-0.281,0.063 -0.582,0.095 -0.905,0.095c-0.543,-0 -1.034,-0.077 -1.473,-0.232c-0.44,-0.155 -0.816,-0.37 -1.128,-0.645c-0.313,-0.275 -0.555,-0.598 -0.725,-0.971c-0.171,-0.373 -0.256,-0.777 -0.256,-1.213c-0,-1.1 0.409,-1.94 1.227,-2.521c0.818,-0.582 1.992,-0.872 3.521,-0.872l1.659,-0l-0,-0.673c-0,-0.544 -0.184,-0.975 -0.55,-1.294c-0.367,-0.319 -0.885,-0.478 -1.554,-0.478c-0.304,-0 -0.569,0.036 -0.797,0.109c-0.227,0.072 -0.417,0.172 -0.568,0.298c-0.152,0.126 -0.266,0.275 -0.341,0.446c-0.076,0.17 -0.114,0.353 -0.114,0.549l-2.265,0c-0,-0.398 0.093,-0.785 0.279,-1.161c0.187,-0.376 0.46,-0.711 0.82,-1.004c0.36,-0.294 0.801,-0.53 1.322,-0.706c0.522,-0.177 1.117,-0.266 1.787,-0.266c0.606,0 1.169,0.074 1.687,0.223c0.518,0.148 0.967,0.37 1.346,0.663c0.379,0.294 0.676,0.661 0.891,1.1c0.214,0.439 0.322,0.952 0.322,1.54l-0,4.568c-0,0.449 0.033,0.858 0.099,1.227c0.067,0.37 0.163,0.691 0.289,0.962l0,0.161l-2.322,0Zm-2.729,-1.639c0.29,-0 0.564,-0.037 0.82,-0.109c0.256,-0.073 0.486,-0.168 0.691,-0.284c0.206,-0.117 0.383,-0.252 0.531,-0.403c0.149,-0.152 0.267,-0.307 0.356,-0.465l-0,-1.924l-1.441,0c-0.922,0 -1.603,0.149 -2.042,0.446c-0.44,0.297 -0.659,0.72 -0.659,1.27c-0,0.208 0.035,0.403 0.104,0.583c0.07,0.18 0.176,0.335 0.318,0.464c0.142,0.13 0.322,0.232 0.54,0.308c0.218,0.076 0.479,0.114 0.782,0.114Z" style="fill-rule:nonzero;"/><path d="M171.479,8.324l5.544,-0l0,12.681l3.128,-0l-0,1.876l-8.672,0l-0,-1.876l3.26,-0l0,-10.795l-3.26,-0l-0,-1.886Z" style="fill-rule:nonzero;"/><path d="M183.127,8.324l5.544,-0l0,12.681l3.128,-0l-0,1.876l-8.672,0l-0,-1.876l3.26,-0l-0,-10.795l-3.26,-0l-0,-1.886Z" style="fill-rule:nonzero;"/><path d="M16.966,37.268c0,0.746 -0.088,1.438 -0.265,2.076c-0.177,0.638 -0.436,1.189 -0.777,1.654c-0.342,0.464 -0.76,0.827 -1.256,1.09c-0.496,0.262 -1.066,0.393 -1.711,0.393c-0.581,0 -1.094,-0.095 -1.54,-0.284c-0.445,-0.19 -0.829,-0.462 -1.151,-0.815l-0,4.852l-2.266,0l0,-14.197l2.085,-0l0.095,1.033c0.329,-0.392 0.719,-0.694 1.171,-0.905c0.451,-0.212 0.977,-0.318 1.578,-0.318c0.651,0 1.227,0.127 1.729,0.379c0.503,0.253 0.924,0.608 1.266,1.067c0.341,0.458 0.6,1.007 0.777,1.649c0.177,0.641 0.265,1.35 0.265,2.127l0,0.199Zm-2.265,-0.199c0,-0.461 -0.047,-0.895 -0.142,-1.303c-0.095,-0.407 -0.24,-0.764 -0.436,-1.071c-0.196,-0.306 -0.446,-0.548 -0.749,-0.725c-0.303,-0.177 -0.663,-0.265 -1.08,-0.265c-0.506,-0 -0.923,0.107 -1.251,0.322c-0.329,0.215 -0.588,0.502 -0.777,0.863l-0,4.587c0.189,0.353 0.447,0.641 0.772,0.862c0.325,0.221 0.75,0.332 1.275,0.332c0.417,-0 0.777,-0.092 1.08,-0.275c0.303,-0.183 0.551,-0.43 0.744,-0.739c0.193,-0.31 0.335,-0.67 0.427,-1.081c0.091,-0.41 0.137,-0.846 0.137,-1.308l0,-0.199Z" style="fill-rule:nonzero;"/><path d="M26.216,40.889c-0.347,0.505 -0.769,0.899 -1.265,1.18c-0.496,0.281 -1.05,0.422 -1.663,0.422c-0.531,-0 -1.016,-0.083 -1.455,-0.247c-0.439,-0.164 -0.815,-0.425 -1.128,-0.782c-0.313,-0.357 -0.556,-0.812 -0.73,-1.365c-0.173,-0.552 -0.26,-1.217 -0.26,-1.995l-0,-6.065l2.265,-0l-0,6.084c-0,0.493 0.036,0.901 0.109,1.223c0.072,0.322 0.185,0.578 0.336,0.768c0.152,0.189 0.341,0.323 0.569,0.402c0.227,0.079 0.499,0.119 0.815,0.119c0.607,-0 1.096,-0.119 1.469,-0.356c0.373,-0.236 0.654,-0.557 0.843,-0.961l0,-7.279l2.275,-0l0,10.254l-2.047,0l-0.133,-1.402Z" style="fill-rule:nonzero;"/><path d="M38.329,31.847c0.183,0 0.366,0.007 0.549,0.019c0.184,0.013 0.359,0.032 0.526,0.057c0.168,0.025 0.321,0.052 0.46,0.081c0.139,0.028 0.256,0.061 0.351,0.099l-0.323,2.227c-0.695,-0.158 -1.38,-0.237 -2.056,-0.237c-0.758,0 -1.37,0.158 -1.834,0.474c-0.465,0.316 -0.807,0.755 -1.028,1.318l-0,6.406l-2.266,0l0,-10.254l2.123,-0l0.105,1.601c0.417,-0.556 0.911,-0.993 1.483,-1.312c0.572,-0.319 1.208,-0.479 1.91,-0.479Z" style="fill-rule:nonzero;"/><path d="M42.631,37.088c0,-0.777 0.095,-1.488 0.285,-2.132c0.189,-0.645 0.461,-1.197 0.815,-1.659c0.354,-0.461 0.782,-0.818 1.284,-1.071c0.502,-0.252 1.066,-0.379 1.692,-0.379c0.562,0 1.058,0.097 1.488,0.289c0.429,0.193 0.805,0.469 1.128,0.83l-0,-5.232l2.274,-0l0,14.557l-2.056,0l-0.114,-1.042c-0.322,0.398 -0.709,0.703 -1.161,0.915c-0.452,0.211 -0.978,0.317 -1.578,0.317c-0.619,0 -1.179,-0.131 -1.678,-0.393c-0.499,-0.263 -0.924,-0.624 -1.274,-1.085c-0.351,-0.462 -0.623,-1.01 -0.816,-1.645c-0.192,-0.635 -0.289,-1.325 -0.289,-2.071l0,-0.199Zm2.266,0.199c-0,0.462 0.044,0.894 0.132,1.299c0.089,0.404 0.229,0.758 0.422,1.061c0.193,0.304 0.439,0.542 0.739,0.716c0.3,0.174 0.659,0.26 1.076,0.26c0.518,0 0.941,-0.112 1.27,-0.336c0.328,-0.224 0.591,-0.526 0.787,-0.905l-0,-4.455c-0.196,-0.372 -0.46,-0.669 -0.792,-0.89c-0.332,-0.222 -0.747,-0.332 -1.246,-0.332c-0.423,-0 -0.785,0.088 -1.085,0.265c-0.3,0.177 -0.547,0.42 -0.74,0.73c-0.192,0.31 -0.334,0.67 -0.426,1.08c-0.092,0.411 -0.137,0.847 -0.137,1.308l-0,0.199Z" style="fill-rule:nonzero;"/><path d="M61.16,40.889c-0.347,0.505 -0.769,0.899 -1.265,1.18c-0.496,0.281 -1.051,0.422 -1.664,0.422c-0.53,-0 -1.015,-0.083 -1.454,-0.247c-0.439,-0.164 -0.815,-0.425 -1.128,-0.782c-0.313,-0.357 -0.556,-0.812 -0.73,-1.365c-0.174,-0.552 -0.261,-1.217 -0.261,-1.995l0,-6.065l2.266,-0l-0,6.084c-0,0.493 0.036,0.901 0.109,1.223c0.072,0.322 0.184,0.578 0.336,0.768c0.152,0.189 0.341,0.323 0.569,0.402c0.227,0.079 0.499,0.119 0.815,0.119c0.606,-0 1.096,-0.119 1.469,-0.356c0.373,-0.236 0.654,-0.557 0.843,-0.961l0,-7.279l2.275,-0l-0,10.254l-2.047,0l-0.133,-1.402Z" style="fill-rule:nonzero;"/><path d="M71.007,42.481c-0.758,0 -1.45,-0.126 -2.075,-0.379c-0.626,-0.253 -1.161,-0.6 -1.607,-1.043c-0.445,-0.442 -0.791,-0.965 -1.038,-1.568c-0.246,-0.604 -0.369,-1.256 -0.369,-1.957l-0,-0.389c-0,-0.815 0.131,-1.548 0.393,-2.199c0.262,-0.65 0.613,-1.206 1.052,-1.668c0.439,-0.461 0.951,-0.815 1.535,-1.061c0.585,-0.247 1.199,-0.37 1.844,-0.37c0.745,0 1.403,0.125 1.971,0.375c0.569,0.249 1.044,0.6 1.427,1.052c0.382,0.451 0.671,0.987 0.867,1.606c0.196,0.619 0.294,1.298 0.294,2.038l-0,0.957l-7.109,-0c0.038,0.398 0.136,0.768 0.294,1.109c0.158,0.341 0.365,0.636 0.621,0.886c0.256,0.25 0.556,0.445 0.9,0.588c0.345,0.142 0.722,0.213 1.133,0.213c0.575,-0 1.104,-0.114 1.587,-0.341c0.484,-0.228 0.877,-0.541 1.18,-0.939l1.232,1.157c-0.164,0.246 -0.376,0.485 -0.635,0.715c-0.259,0.231 -0.562,0.436 -0.909,0.616c-0.348,0.18 -0.738,0.326 -1.171,0.436c-0.433,0.111 -0.905,0.166 -1.417,0.166Zm-0.275,-8.805c-0.316,0 -0.609,0.057 -0.881,0.171c-0.272,0.114 -0.515,0.28 -0.73,0.498c-0.215,0.218 -0.396,0.483 -0.545,0.796c-0.148,0.312 -0.254,0.668 -0.317,1.066l4.805,-0l-0,-0.171c-0.019,-0.303 -0.078,-0.595 -0.176,-0.876c-0.097,-0.282 -0.241,-0.533 -0.431,-0.754c-0.189,-0.221 -0.428,-0.398 -0.715,-0.531c-0.288,-0.132 -0.624,-0.199 -1.01,-0.199Z" style="fill-rule:nonzero;"/><path d="M90.019,32.037l5.469,-0l-0,8.378l3.042,-0l0,1.876l-8.511,0l0,-1.876l3.185,-0l-0,-6.492l-3.185,-0l0,-1.886Zm2.995,-2.654c0,-0.354 0.114,-0.646 0.341,-0.877c0.228,-0.23 0.547,-0.346 0.958,-0.346c0.417,0 0.74,0.116 0.971,0.346c0.231,0.231 0.346,0.523 0.346,0.877c-0,0.354 -0.115,0.646 -0.346,0.877c-0.231,0.23 -0.554,0.346 -0.971,0.346c-0.411,-0 -0.73,-0.116 -0.958,-0.346c-0.227,-0.231 -0.341,-0.523 -0.341,-0.877Z" style="fill-rule:nonzero;"/><path d="M107.856,39.515c-0,-0.171 -0.035,-0.327 -0.104,-0.47c-0.07,-0.142 -0.195,-0.271 -0.375,-0.388c-0.18,-0.117 -0.426,-0.226 -0.739,-0.327c-0.313,-0.101 -0.712,-0.199 -1.199,-0.294c-0.606,-0.126 -1.155,-0.278 -1.644,-0.455c-0.49,-0.177 -0.91,-0.388 -1.261,-0.635c-0.35,-0.246 -0.62,-0.532 -0.81,-0.858c-0.19,-0.325 -0.284,-0.703 -0.284,-1.132c-0,-0.417 0.098,-0.814 0.293,-1.19c0.196,-0.376 0.476,-0.706 0.839,-0.99c0.363,-0.284 0.806,-0.51 1.327,-0.678c0.521,-0.167 1.104,-0.251 1.749,-0.251c0.682,0 1.293,0.086 1.834,0.256c0.54,0.171 0.996,0.403 1.369,0.697c0.373,0.294 0.659,0.639 0.858,1.037c0.199,0.399 0.298,0.825 0.298,1.28l-2.265,-0c0,-0.202 -0.044,-0.397 -0.132,-0.583c-0.089,-0.186 -0.222,-0.352 -0.399,-0.497c-0.176,-0.146 -0.396,-0.261 -0.658,-0.346c-0.262,-0.086 -0.564,-0.128 -0.905,-0.128c-0.342,-0 -0.637,0.036 -0.886,0.109c-0.25,0.072 -0.457,0.167 -0.621,0.284c-0.165,0.117 -0.286,0.254 -0.365,0.412c-0.079,0.158 -0.119,0.322 -0.119,0.493c0,0.171 0.03,0.325 0.09,0.464c0.06,0.139 0.173,0.266 0.337,0.38c0.164,0.113 0.392,0.216 0.682,0.308c0.291,0.091 0.667,0.178 1.128,0.26c0.645,0.114 1.224,0.256 1.739,0.427c0.515,0.17 0.954,0.379 1.318,0.625c0.363,0.247 0.642,0.539 0.838,0.877c0.196,0.338 0.294,0.734 0.294,1.189c0,0.455 -0.104,0.872 -0.313,1.251c-0.208,0.379 -0.505,0.706 -0.89,0.981c-0.386,0.275 -0.849,0.488 -1.389,0.64c-0.54,0.152 -1.145,0.228 -1.815,0.228c-0.745,-0 -1.403,-0.1 -1.971,-0.299c-0.569,-0.199 -1.046,-0.46 -1.431,-0.782c-0.386,-0.322 -0.678,-0.689 -0.877,-1.099c-0.199,-0.411 -0.299,-0.828 -0.299,-1.251l2.199,-0c0.019,0.316 0.101,0.584 0.247,0.805c0.145,0.221 0.331,0.4 0.559,0.536c0.227,0.136 0.48,0.233 0.758,0.294c0.278,0.06 0.559,0.09 0.844,0.09c0.701,-0 1.235,-0.119 1.601,-0.356c0.367,-0.237 0.55,-0.542 0.55,-0.914Z" style="fill-rule:nonzero;"/><path d="M125.778,32.037l0.057,1.08c0.202,-0.398 0.474,-0.709 0.815,-0.933c0.341,-0.225 0.752,-0.337 1.232,-0.337c0.436,0 0.798,0.087 1.085,0.261c0.288,0.174 0.504,0.444 0.649,0.81c0.203,-0.328 0.462,-0.589 0.778,-0.782c0.315,-0.192 0.698,-0.289 1.146,-0.289c0.335,0 0.643,0.055 0.924,0.166c0.282,0.111 0.522,0.286 0.721,0.526c0.199,0.24 0.354,0.547 0.464,0.919c0.111,0.373 0.166,0.822 0.166,1.346l-0,7.487l-2.104,0l-0,-7.506c-0,-0.41 -0.087,-0.693 -0.261,-0.848c-0.173,-0.155 -0.396,-0.232 -0.668,-0.232c-0.259,-0 -0.464,0.061 -0.616,0.185c-0.152,0.123 -0.262,0.286 -0.332,0.488l0,7.913l-2.056,0l-0,-7.506c-0,-0.398 -0.081,-0.677 -0.242,-0.839c-0.161,-0.161 -0.381,-0.241 -0.659,-0.241c-0.265,-0 -0.473,0.057 -0.625,0.17c-0.152,0.114 -0.269,0.269 -0.351,0.465l0,7.951l-2.104,0l0,-10.254l1.981,-0Z" style="fill-rule:nonzero;"/><path d="M136.611,32.037l5.468,-0l0,8.378l3.043,-0l-0,1.876l-8.511,0l-0,-1.876l3.184,-0l0,-6.492l-3.184,-0l-0,-1.886Zm2.995,-2.654c-0,-0.354 0.113,-0.646 0.341,-0.877c0.227,-0.23 0.546,-0.346 0.957,-0.346c0.417,0 0.741,0.116 0.972,0.346c0.23,0.231 0.346,0.523 0.346,0.877c-0,0.354 -0.116,0.646 -0.346,0.877c-0.231,0.23 -0.555,0.346 -0.972,0.346c-0.411,-0 -0.73,-0.116 -0.957,-0.346c-0.228,-0.231 -0.341,-0.523 -0.341,-0.877Z" style="fill-rule:nonzero;"/><path d="M149.813,32.037l0.142,1.421c0.373,-0.511 0.823,-0.908 1.351,-1.189c0.527,-0.281 1.113,-0.422 1.758,-0.422c0.524,0 1.003,0.076 1.436,0.228c0.433,0.151 0.805,0.388 1.118,0.71c0.313,0.323 0.556,0.74 0.73,1.252c0.174,0.511 0.26,1.127 0.26,1.848l0,6.406l-2.265,0l0,-6.368c0,-0.424 -0.049,-0.778 -0.147,-1.062c-0.098,-0.284 -0.237,-0.512 -0.417,-0.682c-0.18,-0.171 -0.399,-0.293 -0.658,-0.365c-0.259,-0.073 -0.553,-0.109 -0.882,-0.109c-0.499,-0 -0.933,0.11 -1.303,0.332c-0.369,0.221 -0.668,0.521 -0.895,0.9l-0,7.354l-2.275,0l-0,-10.254l2.047,-0Z" style="fill-rule:nonzero;"/><path d="M164.191,42.481c-0.759,0 -1.451,-0.126 -2.076,-0.379c-0.626,-0.253 -1.161,-0.6 -1.607,-1.043c-0.445,-0.442 -0.791,-0.965 -1.037,-1.568c-0.247,-0.604 -0.37,-1.256 -0.37,-1.957l0,-0.389c0,-0.815 0.131,-1.548 0.393,-2.199c0.263,-0.65 0.613,-1.206 1.052,-1.668c0.44,-0.461 0.951,-0.815 1.536,-1.061c0.584,-0.247 1.199,-0.37 1.843,-0.37c0.746,0 1.403,0.125 1.971,0.375c0.569,0.249 1.045,0.6 1.427,1.052c0.382,0.451 0.671,0.987 0.867,1.606c0.196,0.619 0.294,1.298 0.294,2.038l-0,0.957l-7.108,-0c0.038,0.398 0.136,0.768 0.293,1.109c0.158,0.341 0.365,0.636 0.621,0.886c0.256,0.25 0.556,0.445 0.901,0.588c0.344,0.142 0.722,0.213 1.132,0.213c0.575,-0 1.104,-0.114 1.588,-0.341c0.483,-0.228 0.876,-0.541 1.18,-0.939l1.232,1.157c-0.165,0.246 -0.376,0.485 -0.635,0.715c-0.259,0.231 -0.563,0.436 -0.91,0.616c-0.348,0.18 -0.738,0.326 -1.171,0.436c-0.432,0.111 -0.905,0.166 -1.416,0.166Zm-0.275,-8.805c-0.316,0 -0.61,0.057 -0.882,0.171c-0.271,0.114 -0.515,0.28 -0.73,0.498c-0.214,0.218 -0.396,0.483 -0.544,0.796c-0.149,0.312 -0.255,0.668 -0.318,1.066l4.805,-0l0,-0.171c-0.019,-0.303 -0.077,-0.595 -0.175,-0.876c-0.098,-0.282 -0.242,-0.533 -0.431,-0.754c-0.19,-0.221 -0.428,-0.398 -0.716,-0.531c-0.287,-0.132 -0.624,-0.199 -1.009,-0.199Z" style="fill-rule:nonzero;"/></g><path d="M1.374,7.031c0,-3.088 2.508,-5.596 5.596,-5.596l190.776,-0c3.089,-0 5.596,2.508 5.596,5.596l0,39.939c0,3.089 -2.507,5.596 -5.596,5.596l-44.987,0l34.714,33.368l-80.066,-33.368l-100.437,0c-3.088,0 -5.596,-2.507 -5.596,-5.596l0,-39.939Z" style="fill:none;stroke:#000;stroke-width:1.67px;stroke-linecap:round;stroke-miterlimit:1.5;"/></svg>