<?xml version="1.0" encoding="UTF-8" standalone="no"?><!DOCTYPE svg PUBLIC "-//W3C//DTD SVG 1.1//EN" "http://www.w3.org/Graphics/SVG/1.1/DTD/svg11.dtd"><svg width="100%" height="100%" viewBox="0 0 2481 3508" version="1.1" xmlns="http://www.w3.org/2000/svg" xmlns:xlink="http://www.w3.org/1999/xlink" xml:space="preserve" xmlns:serif="http://www.serif.com/" style="fill-rule:evenodd;clip-rule:evenodd;stroke-linejoin:round;stroke-miterlimit:2;"><g><g><path d="M157.017,266.597c-0,0.978 0.792,1.771 1.77,1.771l16.729,-0c0.978,-0 1.771,-0.793 1.771,-1.771l-0,-53.996c-0,-7.45 0.86,-13.295 2.648,-17.526c1.712,-4.05 4.586,-7.252 8.608,-9.619c4.087,-2.406 8.45,-3.612 13.088,-3.612c6.066,0 10.781,1.679 14.098,5.165c3.376,3.549 4.949,9.252 4.949,17.042c-0,-0 -0,62.546 -0,62.546c-0,0.978 0.793,1.771 1.771,1.771l16.728,-0c0.978,-0 1.771,-0.793 1.771,-1.771l0,-62.546c0,-9.99 -1.244,-17.604 -3.645,-22.856c-2.482,-5.426 -6.589,-9.69 -12.347,-12.767c-5.627,-3.008 -12.253,-4.531 -19.886,-4.531c-10.904,0 -20.165,3.634 -27.783,10.905c-0,0 -0,-44.45 -0,-44.45c-0,-0.978 -0.793,-1.771 -1.771,-1.771l-16.729,0c-0.978,0 -1.77,0.793 -1.77,1.771l-0,136.245Zm3.541,-1.771l0,-132.703c0,0 13.187,0 13.187,0c0,0 0,47.114 0,47.114c0,0.74 0.46,1.402 1.154,1.66c0.693,0.257 1.474,0.057 1.958,-0.503c7.452,-8.636 16.856,-12.955 28.213,-12.955c6.989,-0 13.064,1.358 18.217,4.112c5.023,2.685 8.63,6.383 10.795,11.117c2.245,4.91 3.325,12.042 3.325,21.383l-0,60.775c-0,0 -13.187,0 -13.187,0c-0,0 -0,-60.775 -0,-60.775c-0,-8.939 -2.051,-15.411 -5.925,-19.483c-3.932,-4.134 -9.471,-6.266 -16.664,-6.266c-5.275,0 -10.237,1.366 -14.885,4.102c-4.715,2.775 -8.067,6.544 -10.073,11.292c-1.93,4.567 -2.928,10.865 -2.928,18.905c0,-0 0,52.225 0,52.225l-13.187,-0Z"/><path d="M262.964,249.666c-0,0.978 0.793,1.771 1.771,1.771l16.728,-0c0.978,-0 1.771,-0.793 1.771,-1.771l0,-98.699c0,-0.978 -0.793,-1.77 -1.771,-1.77l-16.728,-0c-0.978,-0 -1.771,0.792 -1.771,1.77l-0,98.699Zm3.542,-1.771l-0,-95.157c-0,0 13.187,0 13.187,0c-0,0 -0,95.157 -0,95.157l-13.187,-0Zm-3.542,-115.236c-0,0.978 0.793,1.771 1.771,1.771l16.728,-0c0.978,-0 1.771,-0.793 1.771,-1.771l0,-19.238c0,-0.978 -0.793,-1.771 -1.771,-1.771l-16.728,0c-0.978,0 -1.771,0.793 -1.771,1.771l-0,19.238Zm3.542,-1.771l-0,-15.696c-0,0 13.187,0 13.187,0c-0,0 -0,15.696 -0,15.696c-0,0 -13.187,0 -13.187,0Z"/><path d="M398.08,286.467c-0.155,-0.952 -1.043,-1.604 -1.998,-1.468c-2.932,0.419 -5.296,0.633 -7.091,0.633c-2.076,0 -3.684,-0.278 -4.8,-0.953c-1.001,-0.605 -1.729,-1.415 -2.171,-2.439c-0.543,-1.258 -0.738,-4.096 -0.738,-8.499c-0,0 -0,-55.942 -0,-55.942c-0,-0 15.051,-0 15.051,-0c0.978,-0 1.77,-0.793 1.77,-1.771l0,-13.011c0,-0.978 -0.792,-1.771 -1.77,-1.771l-15.051,-0c-0,-0 -0,-32.709 -0,-32.709c-0,-0.638 -0.344,-1.228 -0.9,-1.542c-0.557,-0.314 -1.239,-0.304 -1.786,0.026l-16.635,10.037c-0.532,0.321 -0.856,0.896 -0.856,1.517l-0,22.671c-0,-0 -10.497,-0 -10.497,-0c-0.978,-0 -1.771,0.793 -1.771,1.771l0,13.011c0,0.978 0.793,1.771 1.771,1.771l10.497,-0c-0,-0 -0,55.013 -0,55.013c-0,10.4 0.779,17.214 2.192,20.456c1.509,3.465 4.1,6.276 7.805,8.403c3.557,2.042 8.552,3.116 15.008,3.116c3.824,0 8.159,-0.505 13.004,-1.525c0.926,-0.195 1.535,-1.084 1.383,-2.019l-2.417,-14.776Zm-3.217,2.269l1.863,11.393c-3.91,0.742 -7.448,1.116 -10.616,1.116c-5.689,0 -10.111,-0.846 -13.245,-2.646c-2.987,-1.714 -5.105,-3.952 -6.321,-6.745c-1.314,-3.016 -1.898,-9.368 -1.898,-19.042c0,-0 0,-56.784 0,-56.784c0,-0.978 -0.792,-1.771 -1.77,-1.771l-10.497,0c-0,0 -0,-9.469 -0,-9.469c-0,-0 10.497,-0 10.497,-0c0.978,-0 1.77,-0.793 1.77,-1.771l0,-23.443c0,0 13.094,-7.9 13.094,-7.9c0,0 0,31.343 0,31.343c0,0.978 0.793,1.771 1.771,1.771l15.051,-0c-0,-0 -0,9.469 -0,9.469c-0,0 -15.051,0 -15.051,0c-0.978,0 -1.771,0.793 -1.771,1.771l0,57.713c0,5.139 0.394,8.435 1.028,9.903c0.735,1.702 1.928,3.061 3.591,4.066c1.548,0.936 3.75,1.464 6.632,1.464c1.557,-0 3.515,-0.145 5.872,-0.438Z"/><path d="M410.919,266.597c-0,0.978 0.792,1.771 1.77,1.771l16.729,-0c0.978,-0 1.771,-0.793 1.771,-1.771l-0,-53.996c-0,-7.45 0.86,-13.295 2.648,-17.526c1.711,-4.05 4.586,-7.252 8.607,-9.619c4.088,-2.406 8.45,-3.612 13.089,-3.612c6.066,0 10.781,1.679 14.098,5.165c3.375,3.549 4.949,9.252 4.949,17.042c-0,-0 -0,62.546 -0,62.546c-0,0.978 0.793,1.771 1.771,1.771l16.728,-0c0.978,-0 1.771,-0.793 1.771,-1.771l0,-62.546c0,-9.99 -1.244,-17.604 -3.645,-22.856c-2.482,-5.426 -6.589,-9.69 -12.347,-12.767c-5.627,-3.008 -12.253,-4.531 -19.886,-4.531c-10.904,0 -20.165,3.634 -27.783,10.905c-0,0 -0,-44.45 -0,-44.45c-0,-0.978 -0.793,-1.771 -1.771,-1.771l-16.729,0c-0.978,0 -1.77,0.793 -1.77,1.771l-0,136.245Zm3.541,-1.771l0,-132.703c0,0 13.187,0 13.187,0c0,0 0,47.114 0,47.114c0,0.74 0.46,1.402 1.154,1.66c0.693,0.257 1.474,0.057 1.958,-0.503c7.452,-8.636 16.856,-12.955 28.213,-12.955c6.989,-0 13.064,1.358 18.217,4.112c5.023,2.685 8.63,6.383 10.795,11.117c2.245,4.91 3.324,12.042 3.324,21.383c0,-0 0,60.775 0,60.775c0,0 -13.186,0 -13.186,0c-0,0 -0,-60.775 -0,-60.775c-0,-8.939 -2.051,-15.411 -5.925,-19.483c-3.933,-4.134 -9.471,-6.266 -16.664,-6.266c-5.275,0 -10.237,1.366 -14.885,4.102c-4.715,2.775 -8.067,6.544 -10.073,11.292c-1.93,4.567 -2.928,10.865 -2.928,18.905l0,52.225l-13.187,-0Z"/><path d="M586.326,198.234c-0.822,-0.102 -1.604,0.379 -1.884,1.158c-2.4,6.674 -5.607,11.561 -9.705,14.605c-4.044,3.004 -8.932,4.484 -14.651,4.484c-7.728,-0 -14.181,-2.693 -19.352,-8.097c-4.939,-5.16 -7.762,-12.477 -8.578,-21.912c-0,0 71.703,0 71.703,0c0.957,0 1.74,-0.759 1.77,-1.715c0.063,-2.007 0.094,-3.513 0.094,-4.516c0,-16.824 -4.386,-29.85 -13.021,-39.125c-8.702,-9.346 -19.909,-14.04 -33.638,-14.04c-14.165,-0 -25.681,4.788 -34.566,14.318c-8.823,9.461 -13.301,22.736 -13.301,39.869c-0,16.58 4.435,29.441 13.173,38.627c8.778,9.228 20.64,13.887 35.623,13.887c11.901,-0 21.666,-2.934 29.321,-8.723c7.675,-5.805 12.952,-13.95 15.79,-24.464c0.134,-0.495 0.046,-1.024 -0.24,-1.449c-0.286,-0.426 -0.743,-0.707 -1.252,-0.77l-17.286,-2.137Zm0.952,3.686l13.837,1.711c-2.717,8.745 -7.352,15.618 -13.937,20.598c-7.091,5.363 -16.161,8.006 -27.185,8.006c-13.889,0 -24.92,-4.232 -33.057,-12.786c-8.176,-8.595 -12.198,-20.672 -12.198,-36.186c0,-16.077 4.072,-28.576 12.35,-37.454c8.215,-8.81 18.88,-13.191 31.976,-13.191c12.665,-0 23.019,4.29 31.046,12.911c8.093,8.693 12.071,20.945 12.071,36.712c0,0.668 -0.014,1.565 -0.043,2.69c0,-0 -71.884,-0 -71.884,-0c-0.487,-0 -0.953,0.2 -1.288,0.555c-0.334,0.354 -0.508,0.83 -0.48,1.316c0.648,11.343 3.921,20.003 9.689,26.031c5.857,6.12 13.158,9.189 21.911,9.189c6.549,0 12.132,-1.742 16.763,-5.182c4.299,-3.194 7.798,-8.151 10.429,-14.92Zm-57.862,-29.088c-0.032,0.489 0.14,0.969 0.475,1.326c0.335,0.357 0.803,0.56 1.292,0.56l55.111,-0c0.497,-0 0.972,-0.209 1.307,-0.576c0.336,-0.367 0.501,-0.858 0.457,-1.353c-0.783,-8.744 -3.068,-15.281 -6.721,-19.654c-5.68,-6.866 -13.041,-10.305 -22.087,-10.305c-8.177,0 -15.046,2.749 -20.618,8.222c-5.531,5.432 -8.627,12.682 -9.216,21.78Zm3.698,-1.656c0.8,-7.253 3.448,-13.127 8,-17.598c4.898,-4.812 10.947,-7.206 18.136,-7.206c7.928,0 14.383,3.005 19.36,9.023c0.002,0.003 0.004,0.005 0.006,0.007c3.009,3.601 4.879,8.87 5.712,15.774c0,0 -51.214,0 -51.214,0l0,0Z"/><path d="M622.441,266.597c0,0.978 0.793,1.771 1.771,1.771l16.729,-0c0.978,-0 1.771,-0.793 1.771,-1.771l-0,-51.673c-0,-6.87 0.898,-13.198 2.706,-18.984c1.119,-3.523 2.976,-6.288 5.605,-8.274c2.596,-1.961 5.524,-2.941 8.784,-2.941c3.791,0 7.576,1.138 11.367,3.378c0.451,0.267 0.998,0.32 1.492,0.145c0.495,-0.176 0.886,-0.561 1.069,-1.053l5.762,-15.52c0.293,-0.792 -0.012,-1.68 -0.731,-2.124c-6.136,-3.786 -12.182,-5.654 -18.123,-5.654c-4.267,0 -8.179,1.218 -11.735,3.656c-2.45,1.68 -5.085,4.631 -7.869,8.882c-0,0.001 -0,-8.536 -0,-8.536c-0,-0.978 -0.793,-1.771 -1.771,-1.771l-15.056,-0c-0.978,-0 -1.771,0.793 -1.771,1.771l0,98.698Zm3.542,-1.771l0,-95.157c0,0 11.514,0 11.514,0c0,0 0,13.192 0,13.192c0,0.809 0.548,1.515 1.331,1.716c0.784,0.2 1.604,-0.155 1.992,-0.864c3.662,-6.673 6.99,-11.113 10.091,-13.239c2.949,-2.022 6.193,-3.035 9.732,-3.035c4.934,-0 9.936,1.475 15.02,4.386c-0,0.001 -4.535,12.215 -4.535,12.215c-3.773,-1.912 -7.549,-2.857 -11.321,-2.857c-4.052,0 -7.691,1.22 -10.919,3.657c-3.194,2.413 -5.487,5.75 -6.847,10.032c-0.001,0.002 -0.001,0.005 -0.002,0.007c-1.909,6.11 -2.869,12.791 -2.869,20.045c0,0 0,49.902 0,49.902l-13.187,0Z"/><path d="M755.563,267.244c-0.822,-0.101 -1.604,0.379 -1.884,1.158c-2.4,6.674 -5.607,11.561 -9.706,14.605c-4.043,3.004 -8.931,4.484 -14.65,4.484c-7.728,-0 -14.181,-2.693 -19.352,-8.097c-4.939,-5.16 -7.762,-12.477 -8.578,-21.912c-0,0.001 71.703,0.001 71.703,0.001c0.957,-0 1.74,-0.76 1.77,-1.716c0.063,-2.007 0.094,-3.513 0.094,-4.516c-0,-16.823 -4.386,-29.85 -13.021,-39.125c-8.702,-9.346 -19.909,-14.04 -33.638,-14.04c-14.165,0 -25.681,4.789 -34.566,14.318c-8.823,9.461 -13.301,22.736 -13.301,39.869c-0,16.58 4.435,29.441 13.173,38.627c8.778,9.228 20.64,13.887 35.623,13.887c11.9,0 21.666,-2.933 29.321,-8.723c7.675,-5.804 12.952,-13.95 15.79,-24.463c0.134,-0.496 0.046,-1.025 -0.24,-1.45c-0.286,-0.426 -0.743,-0.706 -1.252,-0.769l-17.286,-2.138Zm0.952,3.686l13.837,1.712c-2.717,8.744 -7.352,15.617 -13.937,20.598c-7.091,5.363 -16.161,8.005 -27.185,8.005c-13.889,0 -24.92,-4.231 -33.057,-12.786c-8.176,-8.595 -12.198,-20.672 -12.198,-36.186c0,-16.076 4.072,-28.576 12.35,-37.454c8.215,-8.81 18.88,-13.191 31.976,-13.191c12.665,-0 23.019,4.29 31.046,12.911c8.093,8.693 12.071,20.945 12.071,36.712c0,0.668 -0.014,1.565 -0.043,2.69c0,-0 -71.884,-0 -71.884,-0c-0.487,-0 -0.953,0.201 -1.288,0.555c-0.334,0.354 -0.508,0.83 -0.48,1.317c0.648,11.342 3.921,20.002 9.689,26.03c5.857,6.12 13.158,9.19 21.911,9.19c6.549,-0 12.132,-1.743 16.762,-5.182c4.3,-3.194 7.799,-8.152 10.43,-14.921Zm-57.862,-29.087c-0.032,0.488 0.14,0.968 0.475,1.325c0.335,0.357 0.803,0.56 1.292,0.56l55.111,-0c0.497,-0 0.972,-0.209 1.307,-0.576c0.336,-0.367 0.501,-0.858 0.457,-1.353c-0.783,-8.744 -3.068,-15.28 -6.721,-19.654c-5.68,-6.866 -13.041,-10.304 -22.087,-10.304c-8.177,-0 -15.046,2.748 -20.618,8.221c-5.531,5.433 -8.627,12.683 -9.216,21.781Zm3.698,-1.657c0.8,-7.252 3.448,-13.126 8,-17.597c4.898,-4.812 10.947,-7.207 18.136,-7.207c7.928,0 14.383,3.005 19.36,9.023c0.002,0.003 0.004,0.005 0.006,0.008c3.009,3.6 4.879,8.87 5.712,15.773c0,0 -51.214,0 -51.214,0l0,0Z"/></g></g></svg>